<?xml version="1.0" standalone="no"?>
<!DOCTYPE svg PUBLIC "-//W3C//DTD SVG 20010904//EN"
 "http://www.w3.org/TR/2001/REC-SVG-20010904/DTD/svg10.dtd">
<svg version="1.0" xmlns="http://www.w3.org/2000/svg"
 width="768.000000pt" height="768.000000pt" viewBox="0 0 768.000000 768.000000"
 preserveAspectRatio="xMidYMid meet">

<g transform="translate(0.000000,768.000000) scale(0.100000,-0.100000)"
fill="#000000" stroke="none">
<path d="M1916 7636 l6 -43 -55 -39 c-84 -59 -135 -157 -122 -236 12 -67 41
-143 78 -200 49 -76 223 -247 293 -287 97 -57 142 -109 129 -151 -8 -25 -119
-38 -179 -21 -51 15 -140 73 -161 104 -8 13 -30 31 -48 40 -165 79 -214 101
-260 113 -70 19 -157 9 -204 -23 -65 -44 -284 -70 -343 -40 -14 7 -35 32 -48
55 -13 23 -28 42 -33 42 -20 0 -20 -31 1 -65 36 -59 79 -84 156 -94 38 -5 72
-7 75 -5 4 2 68 8 143 14 124 9 141 9 190 -9 105 -37 237 -146 256 -212 26
-90 6 -184 -54 -243 -59 -60 -134 -80 -287 -79 -140 2 -174 14 -220 77 -19 25
-43 48 -54 52 -72 25 -178 -17 -262 -104 -71 -73 -126 -94 -180 -68 -19 9 -48
16 -66 16 -41 0 -117 -35 -117 -53 0 -23 10 -26 38 -11 46 24 77 17 128 -27
45 -39 49 -40 103 -36 31 2 90 12 132 22 122 29 144 14 118 -76 -17 -54 6 -89
59 -89 49 0 87 -20 87 -47 0 -14 -20 -34 -68 -67 -57 -39 -71 -45 -88 -36 -11
6 -25 9 -32 6 -7 -3 -6 -5 3 -5 22 -1 39 -21 33 -38 -7 -18 -79 -67 -121 -81
-29 -10 -39 -8 -90 19 -49 25 -65 29 -101 23 -24 -4 -55 -17 -71 -30 -15 -13
-32 -24 -37 -24 -6 0 -16 26 -23 58 -42 193 -88 328 -137 410 -19 31 -53 93
-75 137 -72 143 -156 241 -313 361 -40 31 -79 54 -89 54 -3 0 -6 -10 -5 -22 0
-17 20 -36 77 -73 149 -97 233 -193 325 -366 24 -46 61 -115 81 -153 43 -80
75 -171 86 -241 4 -27 14 -86 23 -130 27 -139 38 -238 28 -248 -15 -15 -79 2
-95 24 -20 30 -37 16 -25 -20 10 -30 45 -51 82 -51 28 0 44 -11 48 -30 6 -31
-11 -66 -43 -85 -77 -45 -158 -142 -158 -190 0 -8 -6 -34 -12 -57 -10 -32 -20
-44 -48 -56 -79 -33 -207 -169 -182 -194 8 -8 25 5 63 46 75 82 94 90 215 88
80 -2 104 1 114 13 7 8 16 15 21 15 11 0 12 -200 1 -217 -4 -6 -33 -19 -65
-28 -44 -13 -72 -30 -118 -72 -58 -54 -60 -57 -57 -102 4 -58 24 -63 58 -17
23 32 122 106 141 106 28 0 -6 -151 -78 -345 -51 -137 -103 -248 -193 -410
-45 -81 -164 -195 -235 -226 -47 -20 -55 -27 -55 -51 0 -22 6 -28 33 -33 58
-12 191 -83 245 -131 49 -43 132 -151 132 -172 0 -5 11 -21 25 -36 14 -15 25
-33 25 -40 0 -8 11 -39 25 -69 22 -46 27 -77 32 -177 4 -76 2 -129 -4 -143 -6
-12 -20 -51 -31 -87 -33 -105 -47 -132 -121 -227 -81 -105 -163 -170 -252
-202 -105 -37 -109 -39 -109 -61 0 -16 4 -19 18 -12 9 5 33 12 54 16 46 8 140
58 197 105 47 38 141 157 183 231 14 25 36 74 49 108 21 59 24 63 48 59 l26
-5 -22 15 c-29 20 -31 63 -4 63 17 0 83 -26 121 -48 8 -5 51 -26 95 -47 44
-20 96 -50 115 -64 19 -15 42 -30 50 -33 9 -3 29 -32 45 -64 62 -122 190 -284
224 -284 6 0 34 -21 64 -47 30 -27 81 -63 113 -82 33 -19 72 -46 87 -60 22
-20 30 -23 36 -12 6 9 16 11 32 6 25 -8 201 -181 264 -260 22 -28 47 -57 56
-65 8 -8 22 -25 30 -37 8 -12 42 -52 74 -89 109 -122 103 -114 85 -114 -5 0
-19 9 -30 20 -11 11 -20 16 -20 11 0 -6 39 -50 86 -98 132 -135 134 -138 134
-157 0 -10 9 -20 20 -23 11 -3 52 -48 91 -100 39 -52 73 -92 76 -89 3 3 -6 19
-21 37 -31 37 -60 89 -49 89 5 0 33 -23 63 -51 46 -43 112 -95 224 -180 26
-20 76 -46 186 -98 102 -49 294 -154 370 -203 30 -19 83 -50 118 -67 35 -17
65 -38 69 -46 3 -8 16 -15 29 -15 41 0 83 -68 57 -93 -9 -9 -53 33 -53 50 0 8
-12 13 -30 13 -23 0 -33 6 -39 24 -6 14 -20 25 -38 29 -15 3 -40 17 -55 31
-15 15 -32 26 -37 26 -6 0 -34 15 -63 34 -29 18 -100 58 -158 88 -158 83 -238
109 -201 64 15 -18 5 -40 -12 -29 -6 4 -2 -6 11 -22 27 -34 22 -42 -18 -25
-31 13 -40 35 -17 43 9 3 9 7 -2 20 -19 24 -44 22 -36 -3 12 -39 -6 -38 -78 3
-62 37 -130 67 -149 67 -3 0 -8 -14 -10 -32 -4 -24 0 -36 16 -50 29 -24 36
-22 36 8 0 20 4 25 16 20 9 -3 17 -6 20 -6 2 0 1 -7 -2 -15 -4 -8 0 -22 7 -31
12 -14 14 -14 26 2 12 16 14 16 31 1 10 -9 24 -40 31 -69 7 -29 16 -62 21 -73
12 -28 54 -207 81 -345 26 -138 41 -180 33 -95 -7 73 -48 252 -107 467 -28
100 -23 124 20 92 24 -18 33 -40 65 -165 20 -79 41 -175 48 -214 16 -104 29
-161 52 -248 11 -42 18 -80 15 -83 -12 -12 -48 9 -63 38 -8 16 -21 27 -28 25
-17 -7 -29 3 -43 35 -8 17 -20 28 -33 28 -27 0 -25 -12 5 -40 14 -13 25 -32
25 -42 0 -10 6 -18 14 -18 8 0 28 -11 44 -25 19 -16 42 -25 64 -25 l35 0 -8
42 c-17 102 -71 355 -105 496 -21 83 -35 154 -33 156 2 2 16 6 32 10 21 5 27
3 28 -11 0 -10 4 -6 9 11 6 18 5 35 -3 47 -16 26 -3 33 30 17 19 -9 29 -22 31
-40 2 -15 10 -32 18 -38 16 -14 18 -6 4 20 -13 25 11 45 38 31 11 -6 22 -17
26 -26 3 -8 16 -15 28 -15 33 0 68 -27 68 -53 0 -16 3 -18 12 -9 34 34 74 -2
81 -73 2 -27 18 -97 35 -155 16 -58 35 -132 42 -165 18 -87 38 -153 39 -129 1
18 -14 92 -49 249 -10 46 -37 144 -52 193 -11 38 -4 51 20 36 23 -15 43 -56
64 -134 89 -330 92 -354 57 -386 -12 -10 -24 -17 -28 -14 -3 3 -7 -8 -9 -24
-3 -25 -7 -28 -33 -24 -16 3 -29 1 -29 -4 0 -4 18 -8 40 -8 29 0 40 4 40 15 0
9 9 15 25 15 16 0 25 -6 25 -15 0 -9 9 -15 25 -15 14 0 25 5 25 10 0 6 7 10
15 10 8 0 15 -5 15 -10 0 -7 29 -10 78 -8 l77 3 3 30 c4 33 16 45 50 45 31 0
32 -47 0 -52 -12 -2 -23 -9 -26 -15 -3 -10 12 -13 52 -13 56 0 56 0 50 27 -5
19 -2 30 10 39 22 16 46 8 46 -16 0 -35 12 -50 39 -50 22 0 27 5 27 21 -1 12
5 24 13 27 11 3 12 -2 7 -22 l-7 -27 83 3 83 3 13 65 c8 36 28 94 45 130 44
91 47 100 38 100 -5 0 -11 -9 -14 -20 -7 -26 -27 -26 -27 1 0 11 27 47 63 84
34 34 82 84 106 109 24 25 52 46 63 46 23 0 23 -1 -7 -54 -49 -88 -19 -75 41
18 25 38 25 40 7 54 -17 13 -17 14 1 28 11 8 27 14 35 14 23 1 51 25 51 44 0
9 5 17 10 17 6 1 15 3 20 4 6 1 15 3 21 4 5 0 17 17 24 36 14 33 46 60 58 49
3 -3 31 25 61 62 63 77 89 97 86 67 -7 -66 10 -59 48 20 2 4 -3 7 -12 7 -9 0
-16 5 -16 11 0 12 40 48 55 49 6 0 28 25 50 55 22 29 55 62 73 72 29 16 94 88
165 186 29 40 47 45 27 8 -9 -18 -8 -21 8 -21 12 0 26 18 44 58 15 31 52 102
83 157 31 55 72 133 91 173 37 75 62 91 74 47 3 -11 12 -20 20 -20 8 0 16 -10
18 -22 2 -13 10 -23 18 -23 23 0 17 -27 -22 -96 -20 -36 -34 -73 -32 -86 3
-20 8 -16 35 27 57 90 59 92 82 78 13 -9 22 -9 26 -2 4 6 17 9 30 7 12 -1 28
2 36 8 30 24 49 24 59 1 10 -22 20 -39 53 -89 9 -14 17 -32 17 -38 0 -7 7 -18
16 -25 15 -10 15 -14 -1 -46 -23 -44 -49 -69 -74 -69 -13 0 -27 -12 -37 -32
-20 -40 -83 -108 -101 -108 -7 0 -24 -18 -39 -41 -14 -22 -38 -48 -53 -57 -15
-8 -38 -35 -51 -59 -17 -33 -31 -46 -52 -50 -17 -3 -33 -15 -38 -27 -4 -12
-18 -33 -31 -47 -13 -14 -41 -45 -62 -67 -21 -23 -45 -42 -53 -42 -8 0 -23
-19 -33 -43 -21 -49 -80 -105 -91 -87 -4 6 -22 -19 -41 -57 -28 -56 -39 -69
-61 -71 -17 -2 -30 -11 -34 -25 -8 -26 -142 -167 -159 -167 -6 0 -18 -15 -26
-33 -8 -17 -27 -38 -42 -45 -28 -14 -45 -38 -33 -49 3 -3 13 0 23 8 15 12 14
9 -3 -20 -23 -41 -45 -53 -36 -19 5 22 5 22 -12 5 -10 -9 -21 -17 -26 -17 -5
0 -16 -13 -24 -29 -15 -28 -15 -29 5 -24 19 5 20 3 14 -18 -4 -13 -13 -34 -21
-46 -21 -34 0 -28 30 8 30 36 56 30 31 -7 -15 -23 -15 -24 8 -24 26 0 29 6 82
145 25 63 79 144 98 145 14 0 7 -28 -18 -64 -14 -20 -25 -42 -25 -49 0 -7 -15
-49 -34 -95 -24 -59 -30 -82 -20 -82 8 0 14 4 14 8 0 15 64 92 77 92 10 0 10
-6 1 -25 -6 -14 -14 -25 -18 -25 -4 0 -12 -12 -19 -26 -10 -23 -9 -25 11 -22
17 2 38 28 78 95 30 50 64 102 76 115 11 13 34 50 50 83 16 33 57 89 91 125
82 86 85 90 203 275 100 156 158 231 210 269 14 11 40 41 58 67 18 27 57 65
91 89 34 22 74 61 92 88 36 53 79 102 90 102 4 0 11 -9 14 -20 5 -15 -2 -31
-24 -56 -17 -19 -31 -39 -31 -45 0 -16 42 11 47 31 7 27 33 34 33 9 0 -11 7
-28 16 -36 8 -9 13 -24 11 -34 -3 -10 4 -35 14 -56 23 -45 24 -80 4 -153 -18
-68 -19 -110 -1 -60 7 19 19 35 27 35 23 0 23 -44 0 -63 -11 -9 -41 -69 -67
-132 -25 -63 -52 -128 -59 -145 -25 -55 -86 -209 -111 -279 -17 -48 -21 -73
-14 -81 7 -8 7 -21 2 -36 -11 -27 -29 -84 -48 -146 -12 -40 -12 -43 6 -43 14
0 22 11 30 43 6 23 25 82 42 132 30 90 48 124 48 93 0 -9 -4 -20 -10 -23 -6
-3 -10 -19 -10 -35 0 -16 -9 -67 -21 -115 -19 -83 -19 -109 1 -89 12 12 57
170 69 242 6 31 17 89 25 127 9 39 16 79 16 90 0 11 14 42 31 69 23 37 33 46
40 35 6 -10 12 -4 24 23 8 21 15 42 15 48 0 18 19 10 25 -11 4 -13 -1 -45 -11
-75 -16 -46 -16 -59 -5 -89 18 -50 22 -85 24 -214 1 -62 4 -100 8 -83 12 57
17 64 39 52 15 -8 20 -22 21 -53 1 -24 4 -32 6 -19 3 15 10 22 21 20 12 -2 18
-16 20 -47 2 -31 8 -44 21 -48 10 -2 23 -20 30 -39 l12 -34 76 0 77 0 -42 36
c-151 129 -270 272 -205 247 11 -4 14 -3 9 5 -4 6 -1 20 5 31 10 15 9 24 -4
45 -14 20 -18 58 -22 188 -3 89 -10 167 -15 172 -7 7 -10 -8 -10 -45 -1 -72
-15 -45 -24 44 -6 63 -5 69 13 74 22 5 22 4 -15 100 -17 44 -24 82 -24 132 0
39 -4 79 -9 89 -8 16 -30 88 -67 222 -9 30 -25 66 -37 80 -28 32 -47 66 -47
83 0 8 -16 34 -35 58 -19 24 -35 48 -35 52 0 5 -11 23 -25 41 -14 18 -25 40
-25 48 0 9 -11 23 -24 32 -14 8 -28 26 -31 38 -4 13 -14 31 -22 40 -13 14 -13
26 0 95 9 43 21 108 27 145 7 37 18 84 25 105 19 54 30 20 16 -47 -16 -73 -13
-73 13 -2 28 74 30 76 51 68 13 -5 15 -15 9 -53 -4 -27 -11 -58 -15 -71 -5
-13 -9 -33 -9 -45 1 -21 1 -21 15 3 8 14 14 37 15 52 0 20 4 26 15 22 10 -4
15 0 15 14 0 22 28 36 53 26 8 -3 26 2 39 10 14 9 49 23 78 32 29 9 64 23 77
31 17 12 27 13 35 5 8 -8 19 -3 39 19 16 17 34 29 40 27 6 -2 24 8 39 22 28
25 85 57 153 84 23 9 37 22 37 33 0 10 17 29 37 43 20 14 43 30 50 35 8 6 34
28 56 50 23 23 60 56 82 74 120 100 228 221 212 238 -3 2 -42 -34 -88 -79
-124 -122 -317 -292 -344 -302 -14 -6 -28 -7 -32 -3 -9 10 26 55 60 75 28 17
141 122 131 122 -3 0 -24 -15 -46 -34 -41 -35 -68 -38 -68 -6 0 10 -9 20 -20
23 -12 3 -20 14 -20 27 0 28 -24 21 -28 -8 -2 -13 3 -25 12 -28 18 -7 40 -69
31 -84 -4 -6 -28 -24 -53 -40 -48 -30 -72 -27 -72 10 0 9 -11 22 -24 28 -21 9
-23 8 -19 -9 3 -11 9 -22 14 -25 5 -3 9 -12 9 -21 0 -30 -28 6 -34 45 -13 76
-37 116 -241 396 -27 37 -30 48 -30 118 0 42 -4 81 -10 87 -5 5 -23 11 -40 13
-29 3 -30 5 -56 118 -15 63 -37 142 -48 174 -37 104 -17 89 120 -92 126 -166
379 -568 405 -644 9 -26 34 -22 34 5 0 12 7 31 15 41 8 11 15 27 15 35 0 9
-10 0 -21 -19 l-21 -34 -19 34 c-10 19 -22 44 -27 55 -62 132 -397 648 -480
737 -13 15 -35 44 -48 65 -13 21 -24 32 -24 24 0 -8 18 -42 40 -77 22 -35 37
-64 32 -64 -4 0 -14 9 -22 21 -71 101 -141 178 -163 179 -5 0 1 -15 12 -32 98
-149 146 -267 182 -446 24 -118 24 -166 0 -274 -18 -85 -106 -282 -150 -338
-11 -14 -43 -54 -71 -90 -73 -94 -168 -151 -309 -185 -77 -18 -108 -20 -196
-10 -83 10 -117 22 -195 70 -84 52 -147 109 -193 175 -24 34 -32 41 -35 27 -7
-33 -26 -12 -68 71 l-41 82 -26 -21 c-40 -31 -35 -56 10 -50 28 4 50 -93 29
-127 -11 -19 -46 5 -58 38 -5 17 -32 44 -65 67 -45 31 -63 38 -99 36 -23 -1
-51 -6 -61 -12 -14 -9 -11 -10 18 -5 44 7 92 -12 137 -54 28 -27 32 -34 22
-52 -9 -17 -6 -34 16 -88 14 -37 32 -74 40 -83 8 -8 14 -21 14 -27 0 -6 7 -15
15 -19 19 -11 75 -99 75 -119 0 -8 5 -24 11 -35 16 -32 -7 -126 -48 -187 -19
-30 -32 -56 -29 -59 8 -8 63 35 84 65 11 15 26 48 35 75 14 42 14 53 1 96 -12
43 -12 53 1 84 20 49 19 104 -4 152 -11 22 -25 54 -32 70 -7 17 -15 33 -17 38
-2 4 2 7 9 7 6 0 40 -29 75 -65 74 -75 221 -155 322 -175 90 -18 242 -8 315
20 31 13 60 20 63 17 3 -3 -4 -56 -16 -119 -12 -62 -26 -138 -30 -168 -5 -30
-15 -77 -23 -105 -7 -27 -22 -79 -31 -115 -26 -95 -82 -222 -144 -325 -58 -96
-155 -223 -178 -232 -8 -3 -14 -11 -14 -18 0 -16 -35 -47 -43 -38 -4 3 -7 -1
-7 -10 0 -18 -62 -87 -79 -87 -6 0 -11 -5 -11 -12 0 -29 -514 -513 -577 -543
-100 -48 -191 -38 -350 36 -218 102 -291 134 -508 220 -128 51 -256 109 -274
122 -7 6 -20 12 -29 14 -9 1 -18 7 -20 12 -2 6 -16 11 -30 11 -15 0 -47 11
-71 25 -23 14 -49 25 -57 25 -7 0 -18 9 -24 20 -6 11 -15 18 -21 14 -5 -3 -21
1 -34 10 -13 9 -31 16 -40 16 -15 0 -133 69 -168 98 -9 9 -26 20 -36 26 -48
28 -82 57 -163 136 -49 46 -88 90 -88 97 0 7 -4 13 -8 13 -5 0 -33 33 -63 73
-49 65 -82 127 -184 337 -17 36 -52 106 -77 155 -25 50 -49 101 -52 115 -3 14
-14 36 -25 49 l-19 25 -32 -28 c-43 -36 -75 -51 -142 -69 -79 -21 -212 1 -318
52 -70 34 -190 131 -248 202 -57 69 -132 174 -132 184 0 4 -8 19 -18 33 -53
76 -111 275 -114 388 -5 196 21 297 104 411 69 94 125 113 239 82 257 -70 380
-162 429 -319 12 -38 31 -81 43 -96 12 -15 24 -50 28 -78 12 -82 76 -303 91
-312 12 -8 5 32 -23 127 -20 71 -24 109 -10 109 8 0 47 -108 43 -122 -1 -3 5
-9 13 -12 10 -4 15 1 15 14 0 11 5 20 11 20 7 0 0 9 -15 21 -31 25 -33 37 -5
41 21 3 20 4 -6 32 -14 16 -27 37 -28 47 -1 11 -6 19 -11 19 -5 0 -6 3 -3 7 4
3 -1 12 -11 19 -28 21 -8 25 44 9 27 -8 63 -15 79 -15 45 0 75 -11 75 -26 0
-16 -14 -18 -38 -5 -9 5 -41 11 -70 13 -44 4 -52 2 -52 -13 0 -10 10 -19 25
-23 14 -4 25 -10 25 -14 0 -5 24 -7 53 -5 l54 3 11 -53 c6 -28 11 -70 11 -91
0 -21 3 -41 5 -44 3 -2 1 -13 -4 -22 -7 -13 -5 -21 5 -30 18 -15 35 -5 35 23
1 86 -3 169 -11 212 -5 28 -7 70 -3 93 6 43 7 44 40 38 19 -3 51 -8 72 -11 36
-6 36 -6 12 8 -14 8 -47 18 -73 21 -27 4 -74 14 -105 22 -31 9 -82 17 -112 18
-124 7 -196 45 -203 108 -1 18 2 22 18 19 11 -2 65 -12 120 -23 55 -10 129
-23 165 -29 252 -37 339 -53 367 -64 21 -9 35 -10 39 -4 7 13 41 -16 49 -42
11 -32 26 -10 19 27 -6 33 -5 34 27 34 65 0 81 9 74 41 -8 34 18 149 52 239
34 87 47 112 93 173 22 28 37 53 35 56 -7 7 -65 -60 -65 -75 0 -7 -6 -17 -14
-21 -39 -22 -125 -262 -126 -349 0 -39 -12 -44 -97 -44 -66 0 -349 35 -391 48
-22 7 -23 12 -28 167 -3 88 -8 163 -10 166 -2 4 3 62 12 130 9 68 16 137 15
153 -2 79 124 194 377 346 84 51 152 94 150 96 -2 2 -23 -4 -47 -12 -53 -18
-92 -13 -43 6 17 6 32 16 32 20 0 4 22 16 49 26 35 12 51 24 53 39 4 20 2 21
-45 17 -68 -7 -60 20 9 30 29 4 54 14 62 25 12 16 10 18 -18 21 -40 4 -34 26
8 30 32 3 41 15 22 27 -6 4 -17 2 -24 -5 -17 -13 -68 -2 -63 14 2 6 24 12 49
14 49 3 62 19 58 69 -1 13 10 33 24 46 14 14 26 29 26 34 0 12 72 35 80 25 4
-4 12 -36 19 -72 7 -36 16 -69 21 -74 15 -15 -5 -39 -75 -91 -88 -64 -119
-121 -120 -220 0 -56 5 -78 25 -113 35 -62 53 -53 62 32 11 111 34 115 62 11
22 -80 56 -153 74 -160 11 -4 13 0 8 22 -18 74 -18 183 -1 250 34 126 88 215
171 281 28 22 67 67 90 105 52 86 96 116 175 121 32 2 66 9 74 16 20 16 20 1
0 -47 -8 -19 -15 -55 -15 -80 0 -28 -7 -53 -20 -71 -22 -30 -39 -122 -23 -122
6 0 18 19 28 43 9 23 22 53 28 67 18 41 83 132 126 178 34 36 46 42 80 42 22
0 43 -5 47 -12 5 -7 11 -5 21 8 10 14 17 16 31 8 11 -7 50 -8 112 -4 54 4 103
3 113 -2 9 -5 21 -6 26 -3 5 3 21 0 36 -7 19 -8 28 -9 37 0 8 8 17 8 31 0 20
-10 56 -15 167 -22 30 -2 69 -10 86 -19 28 -15 32 -15 47 0 13 14 21 14 42 5
14 -7 36 -12 48 -12 13 0 28 -5 33 -10 7 -7 21 -5 44 6 26 14 37 15 52 5 11
-7 27 -9 37 -6 10 3 58 5 107 5 118 0 133 -1 242 -7 87 -5 92 -7 86 -26 -5
-17 -3 -19 12 -12 45 18 72 22 85 14 8 -5 32 -9 53 -9 35 0 46 -6 87 -50 51
-55 87 -121 98 -184 l7 -41 7 41 c4 24 1 61 -7 92 -7 29 -9 52 -5 52 21 0 81
-100 104 -172 14 -43 25 -84 25 -91 0 -6 17 -50 37 -97 l37 -85 4 -193 c3
-142 1 -196 -8 -207 -10 -12 -10 -18 0 -30 7 -8 16 -15 21 -15 5 0 9 7 9 15 0
8 4 15 8 15 10 0 7 284 -3 329 -9 43 6 39 49 -11 42 -50 73 -127 82 -201 5
-47 2 -57 -26 -101 -29 -44 -30 -50 -16 -65 13 -12 16 -13 16 -1 0 7 18 35 40
61 22 26 40 50 40 53 0 4 9 25 19 49 24 54 43 204 31 247 -5 18 -21 47 -35 65
-29 39 -31 53 -10 61 8 4 15 15 15 25 0 10 5 19 10 19 6 0 10 11 10 24 0 29
33 72 48 62 6 -4 36 -44 66 -89 76 -113 87 -128 115 -157 l24 -25 -18 30 c-10
17 -26 39 -36 51 -11 11 -19 24 -19 28 0 5 -16 30 -35 56 -35 48 -43 70 -26
70 11 0 93 -61 134 -98 36 -34 78 -164 71 -219 -9 -69 -37 -153 -51 -153 -15
0 -18 -16 -4 -25 5 -3 9 -47 8 -98 -2 -99 9 -132 55 -173 33 -31 63 -37 103
-23 39 14 42 21 20 39 -10 8 -15 9 -15 2 0 -6 -9 -16 -20 -22 -18 -9 -26 -6
-55 23 -20 20 -36 48 -40 69 -8 41 16 138 41 162 8 9 21 50 30 93 14 73 20 91
28 82 1 -2 20 -30 40 -63 29 -45 36 -65 31 -86 -13 -57 88 -226 334 -563 61
-82 46 -41 -17 50 -154 221 -233 344 -267 416 -20 44 -34 81 -31 84 3 3 40
-49 83 -116 103 -161 268 -397 308 -441 80 -88 131 -181 127 -232 -2 -25 5
-32 26 -26 4 2 5 27 4 56 -3 43 -10 59 -35 85 -16 17 -25 33 -19 35 15 5 63
-21 86 -47 11 -12 27 -21 37 -21 26 0 43 -35 29 -59 -12 -24 -13 -31 -1 -31 5
0 11 14 15 30 3 17 10 30 16 30 5 0 39 -18 75 -40 36 -22 69 -40 74 -40 20 0
45 -45 77 -140 19 -57 41 -112 48 -122 8 -11 11 -29 8 -40 -3 -14 -1 -19 6
-14 8 5 12 -1 12 -16 0 -13 20 -86 45 -163 38 -118 44 -144 35 -170 -9 -25 -8
-32 10 -45 11 -9 30 -50 45 -100 15 -47 35 -107 45 -135 22 -55 86 -279 96
-331 6 -30 7 -32 22 -17 15 14 16 14 22 -3 6 -16 7 -15 13 5 3 13 10 20 16 17
19 -12 -7 52 -43 108 -47 69 -86 165 -93 227 -3 27 -3 49 0 49 3 0 36 -30 74
-68 l67 -67 4 31 c3 27 -6 40 -61 95 -89 90 -124 146 -142 226 -41 176 -159
517 -220 633 -7 14 -16 33 -19 42 -6 20 -2 17 -231 147 -100 56 -194 114 -210
129 -16 15 -38 32 -50 37 -22 12 -366 520 -442 655 l-48 84 -1 106 c-1 63 -8
124 -17 152 -27 86 -125 218 -210 284 -29 23 -48 48 -57 74 -16 50 -9 58 27
32 15 -11 62 -36 103 -57 102 -51 174 -58 253 -22 65 30 87 59 95 122 5 49 -7
59 -27 22 -32 -60 -146 -96 -207 -64 -45 24 -129 109 -153 155 -29 56 -75 107
-111 122 -17 7 -30 20 -30 30 0 10 -7 34 -15 53 -8 20 -15 41 -15 47 0 27 71
-5 149 -68 33 -27 41 -31 33 -15 -21 38 -86 82 -170 114 -61 23 -82 89 -28 89
39 0 72 16 168 80 122 82 166 82 208 1 17 -33 18 -113 0 -145 -11 -22 -20 -27
-50 -26 -52 3 -57 1 -36 -15 30 -22 73 -18 112 11 26 21 38 41 54 94 11 37 20
80 19 96 -1 48 -34 128 -57 140 -12 6 -30 18 -40 27 -23 21 -123 47 -182 47
-25 0 -98 -7 -163 -16 -64 -9 -120 -14 -123 -11 -12 12 18 46 67 77 96 62 175
203 183 329 3 36 3 55 0 41 -23 -114 -85 -260 -128 -299 -38 -36 -44 -17 -12
40 35 63 66 214 66 322 0 111 -35 226 -84 276 -43 45 -57 101 -49 198 7 84 26
114 68 105 22 -4 26 -1 23 13 -1 10 -11 23 -20 29 -22 14 -67 -18 -87 -61 -8
-17 -25 -36 -38 -42 -29 -13 -57 -75 -49 -107 4 -13 24 -43 45 -68 43 -49 59
-107 47 -170 -8 -41 -88 -119 -158 -153 -47 -24 -132 -31 -143 -13 -3 5 2 37
11 70 9 33 14 75 11 93 -3 19 1 43 9 57 21 38 18 189 -5 249 l-18 48 49 42
c26 24 59 64 72 90 27 52 45 137 27 126 -6 -3 -11 -13 -11 -21 0 -30 -42 -107
-82 -150 -39 -42 -79 -57 -92 -35 -4 5 -29 15 -58 22 -44 12 -65 27 -138 99
-75 73 -94 99 -133 180 -50 104 -67 172 -60 238 4 34 11 45 34 57 15 8 37 15
49 15 18 0 19 3 10 20 -17 32 -65 52 -106 44 -49 -9 -89 -46 -110 -100 -15
-41 -16 -56 -4 -160 10 -95 18 -127 46 -182 39 -77 40 -87 18 -142 -19 -48
-38 -60 -93 -60 -35 0 -48 7 -90 48 -41 40 -50 55 -55 97 -4 28 -19 72 -32 98
-22 43 -24 57 -19 115 4 37 2 85 -3 107 -9 37 -10 35 -11 -36 -1 -42 -4 -79
-8 -82 -3 -4 -43 29 -88 72 -98 94 -125 109 -204 117 -54 6 -63 10 -91 45 -27
34 -118 89 -147 89 -6 0 -16 7 -23 15 -9 11 -16 13 -24 5 -5 -5 -37 -10 -70
-10 -76 0 -119 -12 -221 -60 -111 -51 -166 -63 -232 -47 -95 22 -172 109 -219
247 -28 84 -65 141 -104 161 -68 37 -160 16 -160 -35 0 -35 28 -42 32 -8 3 24
6 27 37 24 19 -2 46 -11 59 -20 36 -23 72 -111 72 -175 0 -95 32 -193 97 -295
35 -54 93 -186 93 -210 0 -11 -10 -12 -42 -7 -24 4 -49 10 -55 14 -7 4 -70 62
-140 130 -135 132 -177 158 -313 196 -54 15 -88 17 -205 11 -162 -7 -198 0
-322 62 -130 65 -192 108 -284 201 -66 67 -90 98 -104 139 l-19 52 -68 0 -68
0 6 -44z m-1167 -2010 c7 -8 14 -30 18 -49 4 -27 0 -39 -18 -56 -33 -31 -80
-54 -89 -44 -5 4 -11 33 -15 64 -7 53 -5 57 20 78 32 24 67 27 84 7z m-65
-224 c2 -4 1 -14 -4 -22 -7 -11 -12 -12 -21 -3 -6 6 -8 16 -5 22 8 13 23 14
30 3z m120 -383 c48 -38 31 -82 -78 -193 -37 -37 -72 -66 -79 -63 -15 5 -10
216 6 235 15 19 67 40 98 41 15 1 38 -8 53 -20z m2006 -324 c0 -8 -4 -15 -9
-15 -13 0 -22 16 -14 24 11 11 23 6 23 -9z m-2088 -78 c30 -13 62 -32 72 -43
13 -12 34 -19 59 -19 56 0 56 -17 0 -43 -27 -12 -79 -47 -116 -78 -70 -58 -96
-65 -61 -16 33 45 36 52 20 46 -20 -8 -61 -71 -77 -119 -7 -22 -21 -49 -30
-60 -25 -30 -84 -136 -97 -174 -13 -36 -16 -119 -6 -145 12 -31 34 -18 34 22
0 113 140 255 288 294 63 17 92 21 92 13 0 -4 -16 -25 -35 -46 -19 -21 -50
-69 -69 -107 -32 -64 -33 -70 -24 -119 9 -45 8 -56 -10 -85 -11 -18 -23 -47
-26 -64 -8 -35 -25 -53 -73 -78 -49 -25 -85 -20 -118 14 -34 36 -45 38 -45 8
0 -33 35 -85 72 -108 39 -24 173 -28 211 -8 55 31 100 86 138 168 48 103 63
120 104 120 54 0 63 -15 75 -130 6 -58 15 -125 20 -150 5 -25 12 -68 15 -96
l7 -52 -84 -6 c-46 -4 -130 -19 -188 -33 -194 -47 -262 -87 -309 -185 -44 -88
-61 -118 -70 -118 -5 0 -18 15 -30 33 -95 150 -151 216 -226 267 -41 28 -123
70 -136 70 -4 0 -20 5 -36 11 l-28 11 48 24 c67 35 191 155 218 212 12 26 28
54 35 62 12 15 99 185 127 250 27 63 105 284 110 315 11 57 28 140 32 153 7
19 59 14 117 -11z m1873 -47 c-3 -5 -11 -10 -16 -10 -6 0 -7 5 -4 10 3 6 11
10 16 10 6 0 7 -4 4 -10z m13 -42 c-3 -7 -18 -14 -34 -16 -28 -2 -28 -2 -10
13 24 18 49 20 44 3z m-108 -47 c0 -8 -47 -21 -79 -21 -24 0 29 28 57 29 12 1
22 -3 22 -8z m15 -51 c-3 -5 -21 -10 -38 -10 -24 0 -28 3 -17 10 20 13 63 13
55 0z m45 -40 c0 -5 -13 -10 -30 -10 -16 0 -30 5 -30 10 0 6 14 10 30 10 17 0
30 -4 30 -10z m-95 -40 c-8 -13 -83 -32 -95 -25 -18 11 -10 24 18 28 53 8 83
7 77 -3z m-105 -76 c0 -9 -68 -34 -92 -34 -18 0 -14 5 17 19 39 19 75 26 75
15z m-280 -109 c-35 -20 -62 -19 -36 0 11 8 29 15 40 15 19 -1 19 -2 -4 -15z
m-140 -20 c-7 -8 -20 -15 -29 -15 -11 1 -8 5 9 15 32 18 35 18 20 0z m270
-110 c-16 -20 -90 -58 -97 -51 -10 9 9 27 55 50 50 26 63 26 42 1z m-503 -21
c-31 -17 -74 -11 -47 6 8 6 29 10 45 9 l30 0 -28 -15z m374 -58 c-7 -8 -21
-12 -31 -9 -27 7 -15 23 17 23 21 0 23 -3 14 -14z m-16 -45 c-3 -6 -11 -11
-16 -11 -5 0 -4 6 3 14 14 16 24 13 13 -3z m-75 -10 c0 -9 -24 -21 -42 -21 -6
0 -6 6 2 15 14 16 40 20 40 6z m-90 -20 c0 -12 -20 -25 -27 -18 -7 7 6 27 18
27 5 0 9 -4 9 -9z m60 -31 c0 -5 -10 -10 -22 -9 -22 0 -22 1 -3 9 11 5 21 9
23 9 1 1 2 -3 2 -9z m-80 -20 c0 -5 -12 -10 -27 -10 -20 0 -24 -3 -16 -11 8
-8 17 -8 31 0 29 16 52 14 46 -3 -8 -22 -54 -29 -73 -13 -9 8 -25 17 -36 19
-18 5 -18 6 5 16 32 14 70 15 70 2z m125 -20 c-3 -5 -10 -10 -16 -10 -5 0 -9
5 -9 10 0 6 7 10 16 10 8 0 12 -4 9 -10z m-445 -30 c-8 -5 -28 -9 -45 -9 -26
0 -27 2 -10 9 11 5 31 9 45 9 20 1 22 -1 10 -9z m80 -26 c0 -10 -70 -34 -97
-33 -22 1 -16 5 27 19 61 21 70 23 70 14z m131 -8 c-6 -8 -24 -16 -39 -18 -15
-3 -35 -9 -44 -13 -11 -4 -18 -3 -18 3 0 6 16 14 35 18 19 3 38 10 41 15 3 5
12 9 21 9 12 0 13 -3 4 -14z m234 -25 c10 -17 -32 -31 -91 -31 -43 0 -55 3
-47 11 22 22 127 37 138 20z m-424 -86 c0 -13 -41 -19 -41 -7 0 11 20 22 33
18 5 -1 8 -6 8 -11z m359 5 c17 -11 8 -15 -52 -24 -42 -5 -47 0 -20 20 20 16
51 18 72 4z m-451 -39 c19 -12 -17 -31 -59 -31 -34 0 -32 16 4 30 28 11 38 12
55 1z m504 -6 c-3 -13 -53 -20 -53 -7 0 15 13 23 35 20 11 -2 19 -7 18 -13z
m-245 -32 c2 -9 -11 -13 -47 -13 -55 0 -63 6 -28 20 29 12 69 8 75 -7z m167
-2 c11 -19 -35 -32 -82 -25 -42 6 -45 8 -28 20 21 16 101 19 110 5z m-296 -36
c11 -12 -23 -23 -71 -23 -33 -1 -48 3 -45 11 7 21 97 30 116 12z m154 -15 c12
-11 -48 -23 -73 -15 -17 5 -19 10 -10 20 12 14 66 11 83 -5z m227 10 c0 -17
-38 -30 -89 -30 -27 0 -53 5 -56 10 -4 6 14 10 47 10 29 0 60 5 68 10 19 12
30 13 30 0z m-550 -4 c0 -11 -19 -15 -25 -6 -3 5 1 10 9 10 9 0 16 -2 16 -4z
m-535 -141 c-20 -69 -39 -73 -30 -7 l7 47 -16 -29 c-9 -15 -16 -37 -16 -47 0
-11 -4 -19 -10 -19 -5 0 -10 23 -10 52 0 47 -1 50 -14 32 -14 -18 -15 -18 -25
6 -7 18 -10 20 -10 7 -1 -24 -31 -68 -42 -62 -4 3 -6 20 -2 37 l6 31 -31 -19
c-18 -10 -32 -22 -32 -26 0 -8 111 -122 158 -161 33 -28 41 -54 20 -62 -10 -4
-12 -42 -10 -154 2 -134 5 -159 31 -238 16 -48 28 -89 27 -90 0 0 -83 39 -184
89 l-183 89 2 72 c1 70 -9 135 -31 192 -8 22 -7 33 5 51 8 13 15 35 15 49 0
41 27 94 54 107 15 6 26 15 26 20 0 17 100 107 114 102 7 -3 16 2 19 10 7 19
37 22 37 4 0 -6 6 -4 13 7 15 19 37 13 37 -11 0 -8 5 -14 10 -14 6 0 10 10 10
21 0 16 5 20 20 16 11 -3 25 2 32 11 20 24 23 -47 3 -113z m103 113 c-3 -7
-13 -15 -24 -17 -16 -3 -17 -1 -5 13 16 19 34 21 29 4z m-51 -30 c-3 -8 -6 -5
-6 6 -1 11 2 17 5 13 3 -3 4 -12 1 -19z m1008 2 c0 -10 -13 -16 -42 -18 -49
-4 -57 11 -15 26 35 14 57 10 57 -8z m-163 -2 c-8 -8 -17 -8 -34 0 -22 10 -21
11 12 11 26 1 31 -2 22 -11z m-272 -18 c0 -6 -16 -7 -55 -1 -5 1 -4 5 4 10 14
9 51 3 51 -9z m162 -12 c-8 -8 -20 -8 -44 -1 l-33 11 45 1 c33 1 41 -2 32 -11z
m126 -5 c-4 -21 -19 -26 -38 -13 -13 9 -13 11 0 20 23 15 42 12 38 -7z m155
-10 c4 -3 2 -11 -4 -20 -10 -12 -10 -16 1 -23 7 -4 10 -15 7 -24 -5 -14 -14
-16 -44 -10 -45 8 -47 9 -38 23 3 6 18 11 33 12 23 1 22 2 -11 11 -30 8 -42 7
-62 -6 -26 -17 -90 -25 -102 -13 -11 12 5 19 54 25 26 3 61 13 77 23 27 17 62
17 89 2z m-405 1 c31 -9 27 -21 -9 -29 -33 -7 -56 5 -45 24 8 12 21 13 54 5z
m138 -15 c10 -16 -15 -29 -57 -29 -51 0 -57 12 -12 26 50 16 61 16 69 3z
m-906 -59 c0 -25 -18 -36 -26 -16 -8 21 3 49 16 41 5 -3 10 -15 10 -25z m894
2 c5 -3 -2 -13 -15 -23 l-24 -18 25 -10 25 -10 -27 0 c-17 -1 -28 4 -28 12 0
8 -12 20 -27 27 l-28 13 30 12 c27 12 44 11 69 -3z m171 -22 c9 -14 -42 -31
-73 -24 -46 10 -53 14 -47 24 8 13 112 13 120 0z m115 -25 c0 -15 -11 -19 -40
-15 -23 3 -26 10 -10 20 23 15 50 12 50 -5z m-1121 -25 c20 0 35 -36 20 -46
-13 -8 -59 43 -59 64 1 16 1 16 11 0 5 -10 18 -18 28 -18z m1109 -16 c2 -1 1
-12 -3 -23 -5 -16 -14 -21 -38 -20 -24 1 -26 3 -9 6 30 6 28 21 -5 25 -14 2
-28 9 -31 16 -3 9 7 11 40 6 23 -4 45 -8 46 -10z m-88 -20 c0 -2 -17 -4 -37
-4 -24 0 -33 3 -25 9 12 7 62 4 62 -5z m4028 -175 c2 -25 -3 -40 -17 -53 -31
-28 -51 -14 -51 37 0 51 6 59 40 55 21 -3 25 -9 28 -39z m67 -224 c94 -140
225 -357 225 -372 0 -7 5 -13 10 -13 6 0 10 -9 10 -20 0 -11 -6 -20 -13 -20
-8 0 -30 -15 -49 -34 -20 -19 -54 -40 -77 -47 -22 -7 -41 -18 -41 -25 0 -7 -8
-18 -17 -23 -14 -8 -10 -9 16 -4 47 9 37 -15 -19 -45 -52 -28 -89 -22 -51 9
13 10 19 19 14 19 -5 0 -14 -5 -19 -10 -17 -17 -45 0 -51 31 -3 16 -9 29 -14
29 -5 0 -9 7 -9 16 0 24 -61 144 -73 144 -6 0 -8 3 -4 6 9 9 -22 66 -32 59 -5
-2 -12 11 -15 30 -4 19 -10 35 -14 35 -4 0 -13 14 -21 31 -13 29 -12 36 13 86
15 30 32 53 38 51 12 -4 52 -70 167 -272 42 -74 62 -100 79 -103 12 -1 22 -1
22 2 0 12 -136 239 -208 348 -43 64 -44 70 -39 120 7 58 25 77 71 77 28 -1 38
-11 101 -105z m-215 -285 c0 -20 -25 16 -34 50 -7 23 -6 23 13 -5 12 -16 21
-37 21 -45z m-50 47 c0 -8 18 -42 40 -76 22 -34 40 -65 40 -70 0 -4 14 -33 31
-65 24 -43 34 -55 41 -44 6 8 7 1 3 -22 -4 -23 -3 -30 3 -21 8 10 13 8 26 -10
9 -13 16 -27 16 -31 0 -12 -48 -56 -54 -50 -3 3 -6 0 -6 -6 0 -15 15 -15 42
-1 11 6 22 8 25 6 7 -8 -77 -47 -99 -47 -11 0 -15 5 -12 14 3 8 -6 25 -20 39
-14 15 -26 31 -26 38 0 18 -99 212 -121 235 -25 26 -24 27 11 80 30 43 60 58
60 31z m-1142 -105 c3 -9 -2 -13 -14 -10 -9 1 -19 9 -22 16 -3 9 2 13 14 10 9
-1 19 -9 22 -16z m54 -53 c36 -73 32 -171 -6 -140 -19 16 -106 153 -106 167 0
5 21 9 48 9 44 0 48 -3 64 -36z m1045 -67 c56 -115 67 -147 59 -161 -14 -22
-45 4 -66 52 -30 73 -41 97 -67 139 -32 53 -29 75 12 77 6 0 33 -48 62 -107z
m648 45 c-8 -19 -176 -127 -199 -127 -9 0 -16 5 -16 10 0 18 52 60 74 60 12 0
27 9 34 20 7 11 18 20 26 20 7 0 26 12 41 26 28 26 51 21 40 -9z m-745 -62
l21 -64 -20 -83 c-24 -98 -37 -182 -46 -299 -5 -71 -4 -88 9 -98 9 -8 16 -24
16 -38 0 -13 11 -46 25 -73 29 -56 31 -70 11 -70 -7 0 -19 -7 -26 -15 -16 -19
-70 -20 -70 -1 0 7 -32 47 -71 87 -81 85 -79 72 -35 254 29 121 56 299 54 357
-1 41 13 64 45 74 12 4 27 13 35 20 23 23 30 17 52 -51z m40 -159 c0 -2 -7
-22 -15 -45 -8 -23 -17 -89 -21 -146 -4 -58 -10 -105 -14 -105 -15 0 -16 12
-8 62 4 29 12 86 18 126 11 87 18 112 31 112 5 0 9 -2 9 -4z m-3665 -221 c76
-153 184 -357 196 -372 15 -17 99 -175 99 -185 0 -4 -4 -8 -10 -8 -5 0 -10 6
-10 13 0 7 -17 31 -37 53 -33 35 -66 91 -238 409 -27 50 -62 108 -77 129 -28
38 -35 66 -21 80 20 19 43 -10 98 -119z m-165 73 c14 -17 169 -269 204 -333
16 -27 32 -55 36 -60 17 -21 71 -137 67 -142 -3 -2 -20 13 -39 33 -18 21 -51
59 -74 84 -22 25 -66 77 -97 115 -32 39 -79 94 -105 124 -67 78 -122 153 -122
167 0 8 18 14 48 17 26 2 52 4 59 5 7 1 17 -4 23 -10z m5817 -270 c-3 -7 -5
-2 -5 12 0 14 2 19 5 13 2 -7 2 -19 0 -25z m-1871 -260 c3 -10 10 -18 15 -18
5 0 9 -12 9 -26 0 -22 -2 -25 -15 -14 -8 7 -15 20 -15 29 0 9 -9 27 -20 41
-11 14 -20 32 -20 40 0 17 36 -24 46 -52z m-3603 -42 c4 -10 1 -13 -9 -9 -15
6 -19 23 -5 23 5 0 11 -7 14 -14z m2986 -152 c-17 -21 -31 -17 -17 5 7 11 16
17 20 14 5 -2 4 -11 -3 -19z m-2795 -44 c39 -54 36 -67 -6 -22 -23 25 -46 72
-35 72 3 0 21 -22 41 -50z m3425 29 c-16 -10 -23 -4 -14 10 3 6 11 8 17 5 6
-4 5 -9 -3 -15z m121 5 c0 -8 -5 -12 -10 -9 -6 4 -8 11 -5 16 9 14 15 11 15
-7z m-3406 -139 c10 -14 24 -25 31 -25 17 0 142 -116 134 -124 -3 -4 -27 2
-52 13 -36 16 -46 25 -49 47 -2 18 -10 28 -23 30 -19 3 -75 59 -75 76 0 15 16
8 34 -17z m81 -13 c-6 -7 -35 18 -35 31 0 5 9 2 20 -8 11 -10 18 -20 15 -23z
m145 -102 c23 -27 39 -50 36 -50 -10 0 -96 82 -96 91 0 20 21 6 60 -41z m38
-91 c13 -16 20 -29 16 -29 -11 0 -54 42 -54 52 0 16 15 7 38 -23z m3212 -175
c0 -23 -20 -55 -30 -49 -11 7 8 65 21 65 5 0 9 -7 9 -16z m0 -95 c0 -10 -4
-19 -10 -19 -5 0 -10 12 -10 26 0 14 4 23 10 19 6 -3 10 -15 10 -26z m-2438
-90 c20 -22 42 -38 47 -34 23 13 131 -74 131 -105 0 -32 -60 19 -112 94 -6 8
-11 7 -17 -3 -7 -11 -20 -5 -60 30 -28 24 -51 47 -51 52 0 18 28 3 62 -34z
m188 -11 c0 -5 -13 -1 -30 9 -31 18 -35 25 -23 36 7 8 53 -31 53 -45z m-81 22
c10 -5 21 -17 25 -25 5 -14 2 -14 -24 2 -41 24 -42 45 -1 23z m172 -43 c25
-28 54 -65 64 -82 11 -16 34 -48 52 -71 37 -46 41 -64 16 -64 -17 1 -73 70
-73 90 0 6 -10 20 -22 32 -32 32 -118 136 -118 143 0 3 8 5 18 5 9 0 38 -24
63 -53z m76 -34 c24 -26 46 -55 49 -65 3 -10 9 -18 13 -18 3 0 15 -13 24 -30
10 -16 14 -30 9 -30 -8 0 -52 54 -52 64 0 2 -22 28 -50 57 -27 30 -50 57 -50
62 0 16 17 4 57 -40z m-167 -14 c0 -6 -7 -6 -20 1 -11 6 -20 15 -20 21 0 6 7
6 20 -1 11 -6 20 -15 20 -21z m-408 -4 c28 -25 32 -36 43 -97 3 -21 11 -40 17
-44 7 -5 9 -2 5 9 -3 8 -9 32 -13 51 -5 28 -3 36 8 36 25 0 45 -31 82 -130 3
-8 4 2 1 22 -6 42 6 55 28 30 17 -18 47 -120 47 -157 0 -12 5 -26 11 -32 19
-19 2 -43 -31 -43 -20 0 -30 -5 -30 -15 0 -8 -2 -15 -4 -15 -2 0 -12 -3 -22
-7 -12 -4 -15 -3 -10 5 4 7 2 12 -4 12 -7 0 -9 8 -5 20 7 22 -13 28 -32 9 -20
-20 -42 -2 -48 38 -8 44 -37 146 -70 250 -29 89 -22 104 27 58z m704 -62 c23
-25 24 -43 1 -43 -7 0 -27 23 -45 50 -17 28 -37 50 -42 50 -6 0 -10 7 -10 16
0 17 44 -17 96 -73z m1085 20 c-18 -28 -31 -41 -31 -30 0 9 5 17 11 17 5 0 7
5 4 10 -3 6 -1 10 4 10 6 0 11 6 11 13 0 15 21 39 28 32 3 -2 -9 -26 -27 -52z
m-1274 -14 c14 -22 23 -43 19 -47 -9 -8 -85 77 -86 96 0 22 38 -6 67 -49z
m1222 9 c-45 -65 -69 -90 -69 -73 0 24 18 56 54 93 37 39 47 26 15 -20z m-999
7 c7 -8 10 -18 7 -21 -9 -9 -68 36 -62 47 7 11 36 -3 55 -26z m-512 -10 c11
-14 26 -23 34 -20 18 7 68 -31 69 -53 0 -11 2 -12 6 -4 8 21 44 13 75 -18 24
-25 29 -37 25 -63 -3 -22 1 -36 12 -44 12 -9 13 -15 5 -23 -15 -15 -54 -3 -54
16 0 8 -5 14 -11 14 -8 0 -8 4 1 15 9 11 6 21 -17 50 -15 19 -31 35 -35 35
-19 0 -17 -24 6 -51 14 -17 27 -40 28 -52 0 -12 2 -34 3 -49 1 -18 -3 -28 -12
-28 -8 0 -11 4 -8 10 3 6 -1 10 -9 10 -9 0 -16 9 -16 20 0 11 -6 23 -14 26
-19 7 -31 75 -15 85 9 5 3 16 -20 39 -23 24 -35 29 -44 22 -15 -13 -30 -5 -46
25 -29 55 0 85 37 38z m553 -87 c-40 -37 -81 -68 -92 -68 -17 0 -18 3 -7 20 7
11 20 23 30 25 9 3 18 11 21 18 3 7 24 26 48 42 24 17 48 37 53 45 8 12 10 12
14 0 3 -8 -24 -41 -67 -82z m1948 31 c-17 -10 -33 15 -24 38 5 14 8 13 22 -6
13 -19 13 -25 2 -32z m-2248 21 c10 -6 19 -16 19 -22 0 -6 7 -19 16 -29 10
-11 12 -19 5 -24 -6 -3 -11 1 -11 9 0 9 -13 22 -29 30 -29 15 -49 46 -30 46 6
0 19 -5 30 -10z m-196 -136 c11 -32 24 -65 29 -73 5 -8 4 -16 -5 -22 -24 -15
-49 -10 -49 9 0 10 -5 23 -11 29 -14 14 -39 112 -32 129 11 28 47 -10 68 -72z
m2451 41 c-9 -23 -26 -9 -26 23 0 24 1 25 16 10 10 -9 14 -24 10 -33z m-2152
29 c16 -6 23 -44 8 -44 -14 0 -43 36 -35 43 8 8 8 8 27 1z m990 -125 c-21 -41
-37 -86 -37 -101 0 -15 -4 -25 -8 -22 -4 2 -9 1 -12 -3 -2 -5 -2 -3 -1 4 2 6
-2 13 -9 16 -14 4 21 87 65 155 15 24 29 53 30 65 1 14 3 10 5 -9 3 -21 -7
-54 -33 -105z m-1060 79 c48 -35 56 -52 30 -62 -31 -12 -44 -5 -69 34 -43 69
-30 78 39 28z m1133 -15 c-9 -9 -19 -14 -23 -11 -10 10 6 28 24 28 15 0 15 -1
-1 -17z m-1093 -88 c3 -8 1 -15 -4 -15 -5 0 -14 -9 -20 -20 -8 -16 -6 -24 11
-41 11 -11 18 -27 15 -35 -5 -13 -31 -15 -156 -13 -96 1 -154 -2 -163 -9 -7
-6 -18 -8 -24 -4 -20 13 10 39 66 57 50 17 61 17 186 2 16 -2 21 5 23 33 2 19
8 41 14 47 14 18 45 16 52 -2z m37 -48 c-1 -12 -15 -9 -19 4 -3 6 1 10 8 8 6
-3 11 -8 11 -12z m50 -18 c-5 -13 -14 -44 -21 -67 -6 -24 -14 -41 -17 -38 -4
3 -1 25 6 48 19 63 31 91 37 86 2 -3 1 -16 -5 -29z m-528 -71 c-5 -19 -3 -21
8 -10 19 18 39 15 39 -7 0 -26 -13 -33 -45 -25 -19 5 -25 12 -25 35 0 18 5 29
14 29 10 0 12 -7 9 -22z"/>
<path d="M790 3029 c0 -5 5 -7 10 -4 6 3 10 8 10 11 0 2 -4 4 -10 4 -5 0 -10
-5 -10 -11z"/>
<path d="M3446 214 c-8 -22 1 -31 16 -16 9 9 9 15 1 23 -7 7 -12 5 -17 -7z"/>
<path d="M4096 7638 c-18 -26 -22 -144 -5 -168 7 -11 8 4 3 51 -7 73 3 104 36
114 11 4 18 11 15 16 -10 16 -33 10 -49 -13z"/>
<path d="M4100 7441 c0 -22 34 -111 43 -111 5 0 6 8 2 18 -4 9 -14 36 -22 60
-14 40 -23 53 -23 33z"/>
<path d="M4712 7195 c0 -16 2 -22 5 -12 2 9 2 23 0 30 -3 6 -5 -1 -5 -18z"/>
<path d="M915 5907 c14 -22 51 -53 85 -72 8 -4 -7 15 -35 44 -52 53 -76 67
-50 28z"/>
<path d="M0 5299 c0 -144 3 -198 11 -193 8 4 9 35 4 98 -6 87 -5 95 28 188 20
53 33 99 29 102 -3 3 -20 6 -39 6 l-33 0 0 -201z"/>
<path d="M0 4986 c0 -25 5 -48 10 -51 13 -8 13 -52 0 -60 -13 -8 -13 -196 0
-229 7 -20 16 -26 40 -26 36 0 37 5 9 106 l-21 76 24 25 c43 45 25 168 -28
192 -35 15 -34 16 -34 -33z"/>
<path d="M121 4668 c-7 -18 -3 -29 18 -51 l26 -29 3 37 c5 56 -30 88 -47 43z"/>
<path d="M3200 4446 c0 -8 4 -17 9 -20 5 -4 7 3 4 14 -6 23 -13 26 -13 6z"/>
<path d="M3140 4310 c0 -5 5 -10 11 -10 5 0 7 5 4 10 -3 6 -8 10 -11 10 -2 0
-4 -4 -4 -10z"/>
<path d="M3340 4303 c0 -5 4 -15 10 -23 11 -18 25 -7 17 15 -6 15 -27 21 -27
8z"/>
<path d="M3160 4281 c0 -6 4 -13 10 -16 6 -3 7 1 4 9 -7 18 -14 21 -14 7z"/>
<path d="M4381 4245 c3 -58 -10 -104 -32 -116 -43 -22 -79 17 -79 86 0 19 -4
35 -9 35 -6 0 -7 -25 -4 -57 14 -143 131 -136 141 8 3 39 0 65 -7 72 -9 9 -12
3 -10 -28z"/>
<path d="M3280 4232 c0 -10 33 -42 43 -42 9 0 -5 34 -17 42 -15 10 -26 10 -26
0z"/>
<path d="M5859 4212 c6 -12 16 -24 22 -28 8 -4 8 -1 0 14 -6 12 -16 24 -22 28
-8 4 -8 1 0 -14z"/>
<path d="M3150 4192 c6 -13 14 -21 18 -18 3 4 -2 14 -12 24 -18 16 -18 16 -6
-6z"/>
<path d="M3230 4180 c0 -5 7 -10 15 -10 9 0 18 -7 21 -15 4 -8 10 -13 14 -10
5 3 11 1 15 -5 8 -13 25 -13 25 0 0 6 -6 10 -14 10 -7 0 -25 9 -39 20 -28 22
-37 25 -37 10z"/>
<path d="M5910 4141 c0 -5 5 -13 10 -16 6 -3 10 -2 10 4 0 5 -4 13 -10 16 -5
3 -10 2 -10 -4z"/>
<path d="M3185 4130 c3 -5 10 -10 16 -10 5 0 9 5 9 10 0 6 -7 10 -16 10 -8 0
-12 -4 -9 -10z"/>
<path d="M6092 4050 c14 -22 24 -19 15 5 -4 8 -11 15 -17 15 -6 0 -6 -7 2 -20z"/>
<path d="M5980 4051 c0 -6 4 -13 10 -16 6 -3 7 1 4 9 -7 18 -14 21 -14 7z"/>
<path d="M3045 3971 c-28 -13 -47 -31 -63 -61 -12 -24 -20 -46 -16 -49 4 -3 9
0 12 8 2 7 17 28 33 45 21 23 28 27 29 14 0 -9 -4 -20 -10 -23 -5 -3 -10 -16
-10 -27 0 -20 1 -20 20 -3 11 10 26 15 36 11 26 -10 0 -33 -47 -41 -74 -13
-45 -30 71 -42 60 -7 118 -16 128 -22 10 -5 68 -15 128 -21 60 -6 165 -20 234
-30 68 -11 126 -17 129 -15 2 3 10 0 17 -6 9 -7 19 -7 32 0 12 6 23 6 28 1 5
-5 27 -7 48 -3 30 5 43 14 64 47 14 23 37 52 50 65 31 30 21 36 -71 46 -59 6
-67 5 -61 -8 3 -10 -11 -37 -38 -71 -39 -50 -68 -70 -68 -47 0 11 41 64 57 74
17 11 17 27 -1 27 -8 0 -30 -23 -50 -50 -20 -28 -41 -48 -46 -45 -13 8 1 35
40 73 16 17 30 35 30 40 0 15 -50 30 -120 36 -87 6 -250 32 -326 51 -33 8 -93
19 -132 24 -39 5 -74 11 -79 14 -5 3 -27 -2 -48 -12z m112 -85 c-28 -40 -39
-48 -52 -35 -6 6 -5 16 3 30 7 11 10 25 6 32 -4 7 -4 9 1 5 4 -4 17 -1 28 7
31 22 40 -2 14 -39z m87 33 c28 -13 25 -29 -5 -29 -14 0 -25 -10 -32 -30 -13
-34 -34 -45 -53 -29 -11 9 -9 17 9 42 18 27 46 55 54 57 1 0 13 -5 27 -11z
m96 -17 c0 -5 -9 -17 -20 -27 -11 -10 -20 -25 -20 -34 0 -12 3 -12 12 -3 18
18 27 15 21 -8 -4 -15 -13 -20 -37 -19 -57 2 -86 10 -86 24 0 8 6 12 14 9 14
-5 40 15 56 47 11 19 60 28 60 11z m30 -22 c0 -5 -4 -10 -10 -10 -5 0 -10 5
-10 10 0 6 5 10 10 10 6 0 10 -4 10 -10z m90 4 c0 -14 -73 -93 -81 -88 -15 9
-11 18 25 57 30 33 56 47 56 31z m35 -30 c-27 -42 -49 -64 -62 -64 -20 0 -15
12 22 53 39 43 66 51 40 11z m65 9 c0 -5 -15 -26 -33 -47 -41 -48 -69 -42 -34
7 12 18 27 35 32 39 13 10 35 10 35 1z m50 -7 c0 -11 -72 -77 -78 -72 -6 7 57
76 70 76 4 0 8 -2 8 -4z m50 -1 c0 -13 -66 -95 -77 -95 -22 0 -14 25 21 63 29
32 56 47 56 32z m24 -50 c-20 -25 -43 -45 -51 -45 -16 0 -12 8 24 58 13 17 33
32 44 32 18 0 16 -5 -17 -45z m181 3 c-7 -5 -23 -24 -35 -43 -12 -19 -26 -35
-31 -35 -20 0 -7 37 27 74 28 30 38 36 44 25 6 -9 4 -16 -5 -21z m32 -32 c-22
-32 -37 -46 -49 -46 -17 0 -6 27 23 64 38 46 60 31 26 -18z"/>
<path d="M2427 3963 c-3 -5 8 -20 22 -34 18 -17 28 -22 28 -13 0 8 -4 14 -8
14 -4 0 -11 9 -14 20 -6 20 -20 26 -28 13z"/>
<path d="M6070 3933 c0 -5 7 -18 15 -29 12 -16 14 -16 15 -3 0 9 -7 22 -15 29
-8 7 -15 8 -15 3z"/>
<path d="M2910 3901 c-17 -33 -11 -47 10 -21 11 14 20 28 20 33 0 14 -20 7
-30 -12z"/>
<path d="M5390 3902 c0 -17 41 -127 50 -136 13 -13 13 -1 -1 49 -15 59 -30 95
-40 95 -5 0 -9 -4 -9 -8z"/>
<path d="M5438 3905 c-7 -7 35 -135 45 -135 4 0 7 7 7 16 0 13 3 14 14 5 23
-19 27 3 10 58 -17 59 -38 70 -28 15 5 -27 4 -35 -5 -30 -6 4 -11 18 -11 30 0
23 -22 51 -32 41z"/>
<path d="M4091 3884 c0 -11 3 -14 6 -6 3 7 2 16 -1 19 -3 4 -6 -2 -5 -13z"/>
<path d="M5280 3893 c-147 -15 -450 -73 -450 -85 0 -15 52 -30 64 -18 17 17
39 12 31 -7 -5 -10 -8 -37 -9 -60 -1 -37 2 -42 24 -47 28 -5 52 10 34 22 -14
10 -36 90 -28 103 3 6 15 9 25 6 10 -3 22 -1 25 4 11 18 27 3 40 -37 l12 -39
-1 42 c0 23 2 45 5 49 10 10 28 -6 28 -25 0 -9 7 -26 15 -37 14 -17 15 -15 9
30 -5 38 -4 48 7 44 14 -5 41 -96 33 -110 -8 -13 -34 -9 -34 5 0 8 -4 7 -10
-3 -5 -8 -18 -15 -29 -15 -12 0 -20 -4 -18 -10 1 -5 9 -9 17 -8 8 1 47 5 85 8
59 4 215 25 215 29 0 1 -9 25 -21 55 -26 70 -10 93 20 28 12 -25 21 -51 21
-56 0 -6 5 -11 11 -11 14 0 5 39 -24 99 -23 48 -30 52 -97 44z m40 -84 c24
-64 23 -59 7 -59 -15 0 -37 61 -37 100 0 32 7 22 30 -41z m-96 4 c3 -21 6 -49
6 -63 0 -20 -2 -22 -10 -10 -8 13 -11 13 -22 -2 -20 -27 -35 -9 -43 51 -6 43
-5 53 6 49 8 -3 15 -18 17 -34 4 -30 18 -52 27 -42 3 3 1 18 -5 33 -6 16 -9
34 -6 42 10 24 23 13 30 -24z m56 -18 c7 -30 10 -58 6 -63 -10 -10 -36 27 -36
52 0 12 -4 28 -9 36 -11 16 -5 30 13 30 7 0 19 -24 26 -55z"/>
<path d="M5850 3854 c0 -3 7 -12 15 -20 16 -17 18 -14 9 10 -6 15 -24 23 -24
10z"/>
<path d="M3991 3836 c-9 -10 -9 -16 -1 -21 12 -7 40 11 40 26 0 14 -26 10 -39
-5z"/>
<path d="M4077 3813 c-5 -27 -2 -41 7 -32 11 10 17 59 8 59 -5 0 -12 -12 -15
-27z"/>
<path d="M2505 3820 c-4 -7 -1 -16 6 -21 17 -10 26 8 11 23 -6 6 -12 6 -17 -2z"/>
<path d="M4026 3811 c-13 -20 -25 -61 -18 -61 11 1 43 70 32 70 -5 0 -11 -4
-14 -9z"/>
<path d="M3962 3780 c-14 -23 -15 -30 -4 -30 5 0 14 11 20 25 14 30 2 34 -16
5z"/>
<path d="M4985 3768 c4 -13 9 -35 12 -50 5 -29 17 -36 28 -18 3 6 1 10 -4 10
-6 0 -14 18 -17 40 -4 22 -11 40 -16 40 -6 0 -7 -10 -3 -22z"/>
<path d="M5915 3747 c14 -24 25 -50 25 -57 0 -7 17 -36 38 -64 21 -28 44 -60
49 -71 26 -48 113 -156 113 -140 0 11 5 15 15 12 8 -4 -18 38 -58 93 -40 54
-98 137 -130 184 -60 89 -97 119 -52 43z"/>
<path d="M4822 3730 c0 -14 2 -19 5 -12 2 6 2 18 0 25 -3 6 -5 1 -5 -13z"/>
<path d="M6210 3746 c0 -6 52 -90 92 -148 10 -15 18 -31 18 -37 0 -5 4 -11 8
-13 4 -1 23 -25 42 -53 19 -27 40 -54 46 -60 6 -5 18 -22 27 -37 10 -16 23
-28 30 -28 7 0 8 3 2 8 -12 8 -75 89 -75 95 0 3 -24 41 -54 84 -29 44 -67 104
-83 133 -26 47 -53 75 -53 56z"/>
<path d="M4771 3714 c0 -11 3 -14 6 -6 3 7 2 16 -1 19 -3 4 -6 -2 -5 -13z"/>
<path d="M4855 3690 c-4 -6 -15 -10 -26 -10 -10 0 -19 -4 -19 -10 0 -11 39
-13 64 -4 9 3 16 10 16 14 0 12 -29 20 -35 10z"/>
<path d="M2845 3660 c-3 -5 -2 -10 4 -10 5 0 13 5 16 10 3 6 2 10 -4 10 -5 0
-13 -4 -16 -10z"/>
<path d="M3216 3597 c-17 -13 6 -15 195 -19 199 -3 217 -5 250 -25 24 -16 39
-19 49 -12 8 5 41 7 73 3 70 -7 79 12 10 21 -27 4 -64 11 -83 15 -19 5 -114
11 -210 15 -96 3 -195 8 -220 11 -30 3 -51 0 -64 -9z"/>
<path d="M3940 3594 c0 -3 15 -23 33 -44 38 -45 75 -116 116 -226 27 -70 31
-93 31 -180 -1 -262 -47 -420 -166 -570 -59 -74 -157 -161 -216 -193 -55 -29
-47 -11 20 45 113 95 206 204 188 221 -3 4 -6 1 -6 -5 0 -6 -11 -22 -23 -36
-13 -14 -32 -37 -43 -52 -23 -31 -209 -187 -277 -232 -58 -39 -139 -49 -246
-33 -57 9 -76 9 -82 0 -5 -9 -17 -9 -50 0 -24 7 -64 17 -88 22 -24 5 -75 25
-113 44 -38 20 -73 33 -77 30 -13 -7 -71 25 -71 40 0 7 -7 18 -15 25 -34 29
-1 20 80 -20 93 -46 126 -48 50 -3 -99 59 -205 147 -267 223 -19 23 -28 28
-28 18 0 -25 -18 -31 -34 -11 -8 10 -24 29 -35 43 l-20 25 17 -45 c77 -199
268 -357 497 -410 86 -20 140 -24 305 -20 68 1 105 7 130 20 19 10 67 30 105
45 39 15 76 33 84 39 10 8 18 5 32 -13 11 -13 19 -28 19 -35 0 -18 64 -56 94
-56 72 0 176 84 218 177 15 34 28 75 28 91 0 15 7 38 16 50 31 45 6 32 -69
-32 -74 -65 -102 -77 -125 -54 -19 19 -14 28 18 28 34 0 49 22 30 45 -9 11 -7
16 9 27 12 7 21 21 21 31 0 30 19 57 40 57 27 0 25 -22 -6 -55 -30 -33 -24
-47 8 -16 13 11 32 27 42 35 19 13 19 14 -7 46 -50 59 -18 101 34 45 24 -25
59 -34 59 -15 0 6 -9 10 -20 10 -11 0 -23 8 -27 18 -3 9 -15 27 -26 39 -18 21
-19 26 -6 70 10 34 14 103 13 243 -1 186 -3 198 -29 270 -33 91 -97 203 -127
225 -23 16 -38 19 -38 9z m-1205 -1022 c-7 -7 -45 29 -45 41 0 6 11 0 25 -13
14 -13 23 -26 20 -28z m85 -89 c0 -19 -13 -9 -16 12 -1 8 2 13 7 9 5 -3 9 -12
9 -21z m1280 18 c0 -19 -31 -81 -56 -110 -59 -71 -171 -94 -219 -46 -14 13
-25 28 -25 34 0 5 20 26 44 46 43 35 45 36 107 29 61 -6 65 -5 98 25 35 31 51
38 51 22z"/>
<path d="M5065 3580 c3 -5 33 -10 66 -10 33 0 59 4 59 10 0 6 -29 10 -66 10
-41 0 -63 -4 -59 -10z"/>
<path d="M4786 3551 c-31 -12 0 -24 41 -16 27 5 33 9 22 16 -17 10 -37 10 -63
0z"/>
<path d="M5354 3480 c10 -115 17 -160 27 -160 15 0 -1 203 -18 220 -14 13 -15
7 -9 -60z"/>
<path d="M6315 3501 c4 -14 11 -29 16 -35 5 -6 62 -87 126 -181 64 -93 119
-172 123 -175 4 -3 13 -16 21 -30 22 -41 83 -119 93 -120 5 0 1 10 -8 23 -9
12 -19 29 -23 37 -4 8 -10 17 -13 20 -4 3 -26 32 -48 65 -23 33 -60 85 -81
115 -22 30 -52 75 -67 100 -15 25 -30 47 -34 50 -4 3 -28 37 -55 75 -56 83
-60 87 -50 56z"/>
<path d="M3710 3507 c0 -15 49 -115 60 -122 22 -14 21 3 -4 52 -22 43 -56 86
-56 70z"/>
<path d="M5542 3465 c0 -16 2 -22 5 -12 2 9 2 23 0 30 -3 6 -5 -1 -5 -18z"/>
<path d="M1 3296 l0 -131 47 -30 c92 -59 118 -140 109 -335 -4 -106 -9 -128
-35 -185 -23 -48 -42 -73 -76 -97 -25 -17 -46 -36 -46 -41 0 -12 40 2 71 26
15 10 32 16 38 13 6 -4 17 8 25 29 21 48 43 55 73 21 37 -44 26 -126 -22 -166
-15 -13 -20 -11 -36 9 -10 12 -21 38 -25 58 -5 29 -9 32 -16 19 -11 -20 8 -86
31 -103 26 -20 48 -15 75 18 22 26 26 40 26 95 0 36 -5 74 -10 84 -8 15 -5 27
10 52 29 48 25 54 -16 19 -60 -53 -67 -35 -44 112 9 57 23 87 41 87 17 0 42
-51 45 -91 5 -72 11 -52 16 56 3 58 11 112 18 120 7 9 8 20 2 32 -5 10 -12 46
-16 81 l-6 64 33 -7 c35 -8 36 -8 55 -6 28 2 10 21 -21 21 -37 0 -77 30 -77
58 0 10 -7 27 -15 38 -8 10 -15 36 -15 57 0 22 -7 54 -16 73 -17 36 -70 75
-100 73 -15 0 -13 -3 8 -13 35 -15 78 -56 78 -73 0 -18 -7 -17 -43 11 -18 14
-54 31 -80 38 -29 7 -46 17 -43 24 3 7 -6 14 -20 17 l-24 4 1 -131z m54 -86
c8 -13 -5 -13 -25 0 -13 8 -13 10 2 10 9 0 20 -4 23 -10z"/>
<path d="M5536 3414 c-3 -8 -10 -55 -16 -102 -5 -48 -14 -109 -19 -137 -5 -27
-7 -68 -5 -92 3 -33 1 -43 -11 -43 -21 0 -31 -25 -44 -115 -7 -44 -19 -122
-27 -173 -15 -91 -12 -158 7 -146 5 3 9 37 9 75 0 76 34 276 55 324 l13 30 8
-30 c7 -25 10 -14 20 65 15 110 30 360 22 360 -3 0 -9 -7 -12 -16z"/>
<path d="M4547 3386 c-31 -67 -50 -203 -50 -371 1 -88 5 -180 10 -205 8 -41
11 -45 37 -45 22 0 33 -8 47 -35 18 -32 19 -33 19 -9 0 13 -9 42 -20 64 -13
25 -17 42 -10 49 12 12 10 16 54 -76 34 -69 78 -119 93 -104 3 3 -8 27 -25 55
-37 59 -84 226 -80 279 l3 37 119 8 c87 6 121 5 126 -3 4 -6 10 -49 13 -95 7
-97 48 -212 96 -269 26 -31 92 -56 150 -56 70 0 107 28 158 118 48 86 111 276
115 349 3 53 1 57 -22 63 -14 4 -77 3 -140 -2 -63 -5 -227 -11 -363 -13 -298
-7 -311 -10 -320 -80 -4 -26 -7 -76 -7 -111 0 -34 -4 -66 -10 -69 -6 -4 -10 8
-10 30 0 20 -4 44 -8 53 -20 39 22 396 49 427 11 12 12 45 1 45 -5 0 -16 -16
-25 -34z m491 -533 c-10 -2 -28 -2 -40 0 -13 2 -5 4 17 4 22 1 32 -1 23 -4z
m62 -88 c0 -15 -54 -75 -67 -75 -6 0 -18 8 -27 19 -16 18 -15 21 20 60 35 39
38 40 56 24 10 -9 18 -22 18 -28z m145 15 c-3 -5 -13 -10 -21 -10 -8 0 -14 5
-14 10 0 6 9 10 21 10 11 0 17 -4 14 -10z m-38 -36 c-3 -3 -12 -4 -19 -1 -8 3
-5 6 6 6 11 1 17 -2 13 -5z"/>
<path d="M5691 3404 c0 -11 3 -14 6 -6 3 7 2 16 -1 19 -3 4 -6 -2 -5 -13z"/>
<path d="M6190 3387 c0 -5 9 -20 20 -34 11 -14 20 -21 20 -15 0 12 -39 60 -40
49z"/>
<path d="M6495 3330 c3 -5 8 -10 11 -10 2 0 4 5 4 10 0 6 -5 10 -11 10 -5 0
-7 -4 -4 -10z"/>
<path d="M1164 3315 c-42 -13 -98 -45 -91 -51 2 -2 23 6 48 17 24 12 72 24
106 27 35 2 63 9 63 13 0 13 -79 9 -126 -6z"/>
<path d="M6240 3322 c0 -4 14 -23 30 -42 l31 -35 -27 43 c-26 42 -34 49 -34
34z"/>
<path d="M6210 3291 c0 -6 4 -13 10 -16 6 -3 7 1 4 9 -7 18 -14 21 -14 7z"/>
<path d="M1395 3274 c4 -11 8 -25 8 -32 0 -8 11 -19 24 -25 13 -5 23 -19 23
-29 0 -10 10 -22 24 -28 18 -6 29 -25 45 -76 25 -80 27 -139 6 -219 -21 -78
-111 -250 -152 -289 -34 -32 -41 -46 -22 -46 36 0 161 183 175 257 6 29 34 49
34 23 0 -5 3 -10 8 -10 9 0 46 89 39 96 -2 3 -10 -9 -16 -26 -6 -17 -15 -29
-21 -25 -16 10 -12 101 5 115 8 7 15 20 15 29 0 24 -22 83 -43 114 -10 15 -15
32 -12 38 8 12 -88 119 -123 138 -23 12 -24 12 -17 -5z"/>
<path d="M6530 3288 c0 -3 12 -18 26 -34 17 -19 22 -22 16 -8 -10 20 -42 52
-42 42z"/>
<path d="M1311 3244 c-32 -37 -20 -40 14 -4 16 17 24 30 19 30 -6 0 -21 -12
-33 -26z"/>
<path d="M4645 3219 c-51 -33 -74 -54 -68 -60 7 -7 22 -3 44 9 27 16 65 22
179 28 150 9 520 11 555 3 29 -6 32 27 3 35 -39 10 -356 7 -495 -6 -132 -11
-158 -9 -135 14 14 14 16 28 3 28 -5 0 -43 -23 -86 -51z"/>
<path d="M5732 3250 c-1 -14 3 -60 7 -104 8 -73 0 -267 -13 -318 -3 -13 3 -5
13 17 16 33 20 63 20 175 0 78 -6 160 -13 195 -8 33 -14 49 -14 35z"/>
<path d="M2770 3242 c-47 -5 -70 -12 -70 -22 0 -6 163 -10 453 -10 443 0 536
-5 607 -33 19 -8 55 -19 80 -25 25 -6 53 -14 63 -17 28 -12 19 9 -13 28 -16
10 -30 24 -30 32 0 8 -4 16 -9 20 -21 12 -991 37 -1081 27z"/>
<path d="M996 3205 c-30 -29 -46 -55 -33 -55 1 0 20 20 40 45 45 54 42 58 -7
10z"/>
<path d="M6310 3235 c0 -15 18 -40 24 -34 3 3 -1 14 -9 25 -8 10 -14 15 -15 9z"/>
<path d="M2618 3201 c-11 -49 -10 -67 3 -54 6 6 9 28 7 49 l-3 39 -7 -34z"/>
<path d="M6580 3216 c0 -2 7 -7 16 -10 8 -3 12 -2 9 4 -6 10 -25 14 -25 6z"/>
<path d="M6710 3205 c0 -5 5 -17 10 -25 5 -8 10 -10 10 -5 0 6 -5 17 -10 25
-5 8 -10 11 -10 5z"/>
<path d="M1261 3184 c0 -11 3 -14 6 -6 3 7 2 16 -1 19 -3 4 -6 -2 -5 -13z"/>
<path d="M6367 3151 c15 -22 30 -38 32 -35 6 5 -42 74 -52 74 -5 0 4 -18 20
-39z"/>
<path d="M5616 3165 c4 -8 8 -15 10 -15 2 0 4 7 4 15 0 8 -4 15 -10 15 -5 0
-7 -7 -4 -15z"/>
<path d="M6740 3163 c0 -6 8 -17 18 -24 16 -13 16 -13 2 6 -8 11 -16 22 -17
24 -2 2 -3 0 -3 -6z"/>
<path d="M2681 3131 c-23 -23 -23 -31 0 -146 22 -107 111 -246 202 -314 52
-40 77 -50 77 -33 0 5 -10 17 -21 28 -31 28 -96 126 -113 170 -30 83 -58 185
-52 191 5 5 141 7 297 3 4 0 9 -21 13 -47 24 -176 104 -300 235 -362 48 -22
69 -26 151 -26 81 0 102 4 145 25 41 21 55 35 81 84 32 60 41 90 53 180 8 65
26 69 52 12 11 -25 24 -46 29 -46 19 0 20 23 5 82 -27 101 -27 100 38 83 21
-6 27 -4 27 9 0 9 -8 16 -18 16 -11 0 -27 9 -37 20 -42 46 -157 58 -670 70
-236 5 -440 12 -452 16 -14 4 -28 -1 -42 -15z m564 -278 c-11 -3 -24 -9 -29
-14 -13 -12 -46 -12 -46 0 0 13 20 19 60 19 20 0 26 -2 15 -5z m385 -34 c0 -5
-7 -9 -15 -9 -8 0 -15 7 -15 15 0 9 6 12 15 9 8 -4 15 -10 15 -15z m-370 3 c0
-5 -11 -14 -25 -20 -31 -14 -35 -15 -35 -3 0 7 22 19 58 30 1 1 2 -3 2 -7z
m141 -37 c38 -21 56 -25 136 -25 50 0 95 -4 98 -10 4 -6 -6 -10 -23 -10 -16 0
-51 -3 -78 -7 -41 -6 -45 -8 -24 -14 14 -3 44 -4 68 -1 34 4 42 2 42 -12 0 -9
-8 -16 -17 -16 -10 -1 -59 -3 -109 -6 -61 -4 -94 -2 -98 5 -11 17 -47 13 -68
-6 -18 -16 -21 -16 -56 2 -26 14 -38 28 -40 46 -4 30 10 43 64 62 54 20 57 20
105 -8z m176 -1 c-3 -3 -12 -4 -19 -1 -8 3 -5 6 6 6 11 1 17 -2 13 -5z m-88
-125 c33 -1 34 -2 11 -9 -31 -10 -113 -12 -134 -4 -32 12 -3 26 42 20 25 -3
61 -6 81 -7z"/>
<path d="M3397 2748 c-4 -13 -7 -25 -7 -28 0 -3 18 -5 40 -5 22 -1 40 3 40 7
0 4 -7 8 -15 8 -8 0 -23 9 -33 20 l-19 21 -6 -23z"/>
<path d="M5630 3133 c0 -11 49 -90 50 -80 0 11 -39 87 -45 87 -3 0 -5 -3 -5
-7z"/>
<path d="M6670 3106 c0 -2 7 -9 15 -16 13 -11 14 -10 9 4 -5 14 -24 23 -24 12z"/>
<path d="M2597 3087 c-11 -8 -17 -31 -19 -77 l-3 -65 -30 2 c-16 2 -42 12 -58
24 -25 18 -33 19 -55 10 -19 -9 -27 -9 -32 0 -4 6 -16 8 -27 5 -11 -3 -39 1
-63 9 -47 17 -80 19 -80 6 0 -11 134 -53 157 -49 10 1 29 -5 42 -14 16 -11 30
-14 40 -8 26 14 57 -19 75 -80 9 -30 23 -66 31 -80 16 -25 16 -25 11 15 -2 22
-8 61 -11 86 -4 26 -3 49 2 52 19 12 35 -13 48 -74 23 -108 27 -119 41 -119
18 0 18 15 -1 44 -20 30 -33 132 -17 122 16 -10 15 11 -3 70 -8 27 -15 66 -15
86 0 42 -10 53 -33 35z"/>
<path d="M6802 3084 c10 -10 20 -15 24 -12 3 4 -5 12 -18 18 -22 12 -22 12 -6
-6z"/>
<path d="M6385 3046 c10 -14 19 -26 22 -26 7 0 -17 39 -28 46 -6 3 -3 -5 6
-20z"/>
<path d="M6716 3046 c3 -8 12 -17 20 -20 11 -4 12 -2 1 14 -14 23 -29 27 -21
6z"/>
<path d="M6430 2996 c0 -5 14 -25 30 -46 17 -21 30 -42 30 -48 0 -5 7 -15 15
-22 8 -7 15 -9 15 -4 -1 11 -90 130 -90 120z"/>
<path d="M0 2956 c0 -10 9 -16 21 -16 24 0 21 23 -4 28 -10 2 -17 -3 -17 -12z"/>
<path d="M1105 2930 c-3 -5 -1 -10 4 -10 6 0 11 5 11 10 0 6 -2 10 -4 10 -3 0
-8 -4 -11 -10z"/>
<path d="M6732 2911 c23 -30 48 -40 48 -21 0 6 -11 16 -25 22 -14 6 -25 15
-25 20 0 4 -5 8 -11 8 -6 0 0 -13 13 -29z"/>
<path d="M6796 2926 c3 -8 12 -17 20 -20 12 -4 12 -2 4 14 -12 23 -32 27 -24
6z"/>
<path d="M6880 2921 c0 -14 34 -71 42 -71 3 0 -1 18 -9 40 -15 36 -33 54 -33
31z"/>
<path d="M5560 2901 c0 -4 10 -23 23 -42 12 -19 29 -47 37 -62 8 -16 16 -24
18 -18 3 9 -66 131 -74 131 -2 0 -4 -4 -4 -9z"/>
<path d="M2 2867 c-1 -14 9 -33 23 -47 14 -13 25 -31 25 -41 0 -28 19 -33 29
-7 6 16 5 28 -5 39 -8 8 -14 21 -14 27 0 7 -9 12 -19 12 -11 0 -23 5 -26 10
-3 6 -1 10 5 10 6 0 8 5 5 10 -11 17 -21 11 -23 -13z"/>
<path d="M6830 2872 c0 -21 46 -69 56 -59 4 3 -7 22 -25 42 -24 28 -31 32 -31
17z"/>
<path d="M2671 2879 c-3 -25 81 -160 123 -198 42 -39 42 -16 0 34 -34 40 -70
89 -111 152 -6 10 -12 15 -12 12z"/>
<path d="M6540 2830 c12 -17 23 -30 25 -30 9 0 -22 50 -33 55 -7 3 -4 -8 8
-25z"/>
<path d="M1262 2830 c0 -14 2 -19 5 -12 2 6 2 18 0 25 -3 6 -5 1 -5 -13z"/>
<path d="M6610 2835 c0 -9 40 -75 45 -75 13 0 35 14 35 22 0 5 -5 6 -11 2 -7
-4 -24 7 -40 26 -16 18 -29 29 -29 25z"/>
<path d="M6933 2817 c4 -10 1 -26 -5 -37 -9 -14 -9 -25 -1 -42 6 -13 18 -45
26 -73 9 -27 16 -42 16 -32 1 9 6 17 11 17 20 0 -17 150 -43 175 -7 7 -8 4 -4
-8z"/>
<path d="M6321 2804 c0 -11 3 -14 6 -6 3 7 2 16 -1 19 -3 4 -6 -2 -5 -13z"/>
<path d="M6901 2794 c0 -11 3 -14 6 -6 3 7 2 16 -1 19 -3 4 -6 -2 -5 -13z"/>
<path d="M1247 2773 c-4 -3 -7 -11 -7 -17 0 -6 5 -5 12 2 6 6 9 14 7 17 -3 3
-9 2 -12 -2z"/>
<path d="M1595 2674 c-80 -116 -197 -259 -225 -274 -11 -6 -20 -20 -20 -30 0
-25 12 -25 35 0 24 26 40 25 52 -2 10 -23 11 -23 50 17 22 22 42 47 45 55 4
13 11 12 44 -6 23 -13 67 -24 107 -27 59 -6 67 -4 67 11 0 9 -25 37 -55 62
-30 25 -55 52 -55 61 0 16 17 62 46 126 16 35 18 63 6 63 -5 0 -13 10 -19 22
-8 19 -16 12 -78 -78z m-105 -219 c0 -8 -7 -15 -15 -15 -16 0 -20 12 -8 23 11
12 23 8 23 -8z m-20 -49 c0 -11 -19 -15 -25 -6 -3 5 1 10 9 10 9 0 16 -2 16
-4z"/>
<path d="M4267 2751 c-21 -5 -43 -14 -50 -21 -10 -10 -7 -11 13 -4 14 4 70 9
125 10 125 2 125 2 125 12 0 10 -165 12 -213 3z"/>
<path d="M5510 2741 c0 -5 5 -13 10 -16 6 -3 10 -2 10 4 0 5 -4 13 -10 16 -5
3 -10 2 -10 -4z"/>
<path d="M6453 2731 c3 -11 -1 -28 -7 -38 -18 -26 -28 -55 -16 -48 6 3 10 13
10 21 0 8 9 14 21 14 15 0 19 4 15 16 -3 9 -6 24 -6 35 0 10 -5 19 -11 19 -6
0 -9 -9 -6 -19z"/>
<path d="M6598 2725 c-4 -20 -2 -25 11 -23 18 4 22 39 5 45 -6 2 -14 -8 -16
-22z"/>
<path d="M1864 2724 c3 -9 6 -18 6 -20 0 -2 5 -4 10 -4 6 0 10 9 10 20 0 12
-7 20 -16 20 -11 0 -14 -5 -10 -16z"/>
<path d="M590 2715 c14 -17 201 -107 207 -101 4 3 -14 15 -39 26 -26 11 -49
30 -56 44 -7 17 -17 24 -27 20 -8 -4 -23 0 -32 7 -20 17 -66 20 -53 4z"/>
<path d="M6385 2709 c-10 -30 0 -33 13 -4 6 14 7 25 2 25 -5 0 -12 -9 -15 -21z"/>
<path d="M1232 2685 c0 -16 2 -22 5 -12 2 9 2 23 0 30 -3 6 -5 -1 -5 -18z"/>
<path d="M3971 2703 c-1 -6 -4 -20 -7 -30 -5 -17 -5 -17 6 0 6 10 9 23 6 30
-3 9 -5 9 -5 0z"/>
<path d="M1948 2693 c7 -3 16 -2 19 1 4 3 -2 6 -13 5 -11 0 -14 -3 -6 -6z"/>
<path d="M1958 2633 c6 -2 18 -2 25 0 6 3 1 5 -13 5 -14 0 -19 -2 -12 -5z"/>
<path d="M2044 2598 c2 -39 23 -49 32 -14 7 28 -1 46 -20 46 -9 0 -13 -11 -12
-32z"/>
<path d="M822 2585 c8 -17 17 -24 27 -20 9 4 22 -2 31 -14 10 -14 19 -18 29
-12 12 8 12 12 2 25 -8 9 -21 16 -31 16 -10 0 -20 7 -24 15 -3 8 -14 15 -25
15 -18 0 -19 -3 -9 -25z"/>
<path d="M820 2515 c0 -27 -9 -32 -28 -13 -17 17 -15 4 5 -40 15 -35 17 -36
21 -12 2 13 10 29 18 35 8 6 11 19 8 33 -8 30 -24 28 -24 -3z"/>
<path d="M930 2531 c0 -12 29 -35 36 -28 11 10 -5 37 -21 37 -8 0 -15 -4 -15
-9z"/>
<path d="M1985 2510 c27 -12 43 -12 25 0 -8 5 -22 9 -30 9 -10 0 -8 -3 5 -9z"/>
<path d="M730 2472 c0 -5 7 -17 15 -28 15 -19 20 -8 9 20 -6 17 -24 22 -24 8z"/>
<path d="M6520 2446 c0 -2 7 -9 15 -16 13 -11 14 -10 9 4 -5 14 -24 23 -24 12z"/>
<path d="M6470 2426 c0 -15 18 -31 26 -23 7 7 -7 37 -17 37 -5 0 -9 -6 -9 -14z"/>
<path d="M1012 2408 c2 -6 10 -14 16 -16 7 -2 10 2 6 12 -7 18 -28 22 -22 4z"/>
<path d="M7285 2364 c0 -32 -5 -49 -17 -58 -21 -15 -23 -35 -7 -70 16 -34 38
-22 45 25 4 22 11 42 15 45 5 3 6 10 3 16 -4 6 -10 5 -15 -3 -6 -9 -7 6 -3 39
5 41 4 52 -7 52 -10 0 -14 -14 -14 -46z"/>
<path d="M6566 2377 c3 -10 9 -15 12 -12 3 3 0 11 -7 18 -10 9 -11 8 -5 -6z"/>
<path d="M890 2353 c0 -14 19 -38 25 -32 8 8 -5 39 -16 39 -5 0 -9 -3 -9 -7z"/>
<path d="M950 2352 c0 -5 9 -17 20 -27 22 -20 26 -9 6 18 -14 18 -26 22 -26 9z"/>
<path d="M3107 2349 c7 -7 15 -10 18 -7 3 3 -2 9 -12 12 -14 6 -15 5 -6 -5z"/>
<path d="M6590 2354 c0 -6 23 -32 50 -59 28 -27 50 -47 50 -45 0 3 -22 29 -50
59 -27 30 -50 50 -50 45z"/>
<path d="M6670 2335 c0 -7 54 -55 58 -51 4 5 -43 56 -52 56 -3 0 -6 -2 -6 -5z"/>
<path d="M1320 2316 c-6 -9 -10 -21 -8 -28 3 -8 9 -4 17 10 15 28 9 39 -9 18z"/>
<path d="M2390 2266 c-6 -19 -8 -46 -4 -60 6 -25 49 -76 65 -76 13 0 39 31 39
47 0 14 -2 14 -18 0 -10 -10 -24 -17 -30 -17 -21 0 -34 42 -30 91 6 57 -5 64
-22 15z"/>
<path d="M892 2274 c10 -10 20 -16 22 -13 3 3 -5 11 -17 18 -21 13 -21 12 -5
-5z"/>
<path d="M6741 2273 c0 -12 58 -55 68 -51 6 2 -8 16 -30 31 -21 16 -39 25 -38
20z"/>
<path d="M7342 2227 c-15 -41 -15 -47 -2 -47 6 0 10 9 10 21 0 11 5 29 10 40
6 10 7 19 2 19 -4 0 -13 -15 -20 -33z"/>
<path d="M7150 2209 c7 -11 14 -18 17 -15 8 8 -5 36 -17 36 -7 0 -7 -6 0 -21z"/>
<path d="M4558 2203 c7 -3 16 -2 19 1 4 3 -2 6 -13 5 -11 0 -14 -3 -6 -6z"/>
<path d="M406 2142 c0 -15 5 -36 11 -46 8 -14 10 -8 9 28 -1 25 -5 46 -11 46
-5 0 -10 -13 -9 -28z"/>
<path d="M450 2136 c0 -9 5 -16 10 -16 6 0 10 4 10 9 0 6 -4 13 -10 16 -5 3
-10 -1 -10 -9z"/>
<path d="M500 2116 c0 -9 5 -16 10 -16 6 0 10 4 10 9 0 6 -4 13 -10 16 -5 3
-10 -1 -10 -9z"/>
<path d="M622 2099 c9 -28 127 -38 135 -12 3 7 -9 11 -34 10 -21 -1 -53 2 -72
7 -26 6 -32 5 -29 -5z"/>
<path d="M5802 2045 c0 -16 2 -22 5 -12 2 9 2 23 0 30 -3 6 -5 -1 -5 -18z"/>
<path d="M810 2030 c-8 -5 -53 -9 -100 -9 -84 1 -154 -8 -298 -37 -41 -8 -78
-11 -83 -8 -6 3 -19 -2 -29 -11 -10 -9 -24 -14 -30 -10 -6 4 -18 1 -26 -6 -8
-6 -17 -9 -21 -6 -3 4 -17 -3 -31 -13 -13 -11 -29 -20 -35 -20 -25 0 -157 -86
-157 -102 0 -10 1 -18 3 -18 2 0 39 20 83 45 43 25 97 50 119 56 22 5 67 19
100 29 167 54 518 78 660 46 193 -44 268 -78 374 -168 80 -68 151 -152 151
-178 0 -10 -17 -29 -37 -41 -43 -26 -66 -52 -52 -57 5 -2 28 13 50 33 22 20
48 35 57 33 34 -6 20 -34 -38 -78 -32 -25 -59 -48 -59 -53 -1 -12 62 24 86 49
24 26 63 32 63 10 0 -7 9 -25 20 -39 11 -14 20 -28 20 -31 0 -3 -38 -30 -85
-61 -47 -31 -85 -59 -85 -61 0 -3 6 -12 14 -19 11 -12 17 -8 37 22 13 20 30
38 37 41 17 5 15 -34 -4 -63 -9 -13 -14 -30 -12 -36 2 -7 23 24 47 69 40 79
71 105 71 61 0 -11 7 -27 15 -35 8 -9 15 -26 15 -38 0 -12 3 -26 7 -29 14 -15
53 -154 53 -192 0 -23 9 -58 20 -80 11 -22 20 -47 20 -56 0 -34 40 -219 60
-279 11 -33 20 -73 20 -88 0 -15 4 -54 9 -87 5 -33 14 -112 21 -175 12 -122
40 -333 45 -338 2 -2 21 -2 43 0 l40 3 -23 70 c-31 91 -40 145 -25 145 11 0
60 -95 60 -117 0 -7 4 -13 8 -13 5 0 14 -18 21 -40 11 -36 27 -58 36 -48 2 2
-2 15 -10 28 -8 14 -19 36 -25 50 -5 14 -15 33 -20 42 -14 25 -12 38 5 38 20
0 19 8 -5 64 -21 45 -40 61 -40 31 0 -28 -18 -15 -34 25 -19 47 -19 50 -6 50
5 0 16 -12 24 -27 l16 -28 -2 30 c0 17 3 38 7 47 5 12 2 20 -9 24 -23 9 -20
21 15 76 32 49 59 63 59 29 0 -10 7 -21 15 -25 17 -6 20 -51 5 -61 -6 -3 -10
-12 -10 -18 0 -7 7 -4 14 6 18 23 34 21 47 -5 5 -13 20 -37 32 -54 12 -18 48
-73 80 -124 32 -51 67 -94 78 -97 10 -3 19 -11 19 -19 0 -7 9 -29 21 -48 17
-28 27 -36 50 -36 l30 0 -24 33 c-13 17 -27 40 -30 49 -12 33 33 -4 54 -45 19
-36 21 -37 72 -37 l52 1 33 72 c18 40 32 75 32 80 0 11 -20 8 -20 -4 0 -9 -48
-120 -55 -127 -7 -8 -65 43 -65 56 0 8 11 27 25 44 14 16 25 38 25 48 0 10 4
21 9 24 14 9 20 57 7 53 -6 -2 -12 -13 -14 -25 -4 -25 -30 -30 -38 -7 -4 8
-12 15 -20 15 -16 0 -19 -16 -3 -25 15 -10 29 -53 23 -70 -10 -25 -32 -17 -50
18 -10 18 -19 26 -22 19 -2 -7 2 -19 8 -27 7 -9 8 -15 3 -15 -6 0 -59 50 -118
111 -110 114 -190 227 -280 394 -26 49 -64 114 -84 145 -19 30 -46 75 -58 100
-13 25 -36 63 -52 85 -17 22 -35 63 -41 90 -17 76 -26 110 -65 232 -19 61 -35
119 -35 128 0 8 -6 18 -14 21 -16 6 -70 103 -62 111 8 8 46 -27 46 -42 0 -7
10 -15 23 -19 13 -3 91 -71 173 -150 82 -80 155 -146 162 -146 11 0 -46 58
-271 271 l-80 77 6 51 c3 28 2 53 -4 56 -5 4 -9 -11 -9 -34 0 -22 -4 -42 -9
-45 -16 -10 -68 24 -97 62 -41 54 -153 162 -241 232 -101 81 -182 117 -318
140 -60 10 -123 23 -138 29 -33 13 -29 13 -47 1z m1150 -1399 c54 -110 55
-113 22 -151 -20 -22 -31 -29 -36 -21 -4 7 -2 19 5 27 10 12 9 17 -6 28 -16
11 -54 155 -55 205 0 28 31 -12 70 -88z"/>
<path d="M1540 2023 c0 -5 25 -34 56 -63 39 -38 54 -59 51 -72 -4 -15 -1 -18
13 -13 15 5 21 0 26 -19 3 -15 13 -26 23 -26 9 0 26 -18 39 -41 13 -22 31 -43
40 -46 17 -7 140 -131 135 -137 -2 -1 11 -15 27 -31 52 -50 32 -9 -24 49 -29
31 -50 59 -47 62 3 4 0 4 -6 0 -7 -4 -13 -3 -13 3 0 11 -26 43 -97 121 -29 31
-53 62 -53 69 0 7 -13 17 -30 22 -16 6 -30 16 -31 22 -1 15 -109 114 -109 100z"/>
<path d="M5870 1996 c0 -29 14 -41 27 -23 7 8 4 18 -9 30 -17 16 -18 16 -18
-7z"/>
<path d="M5941 1954 c0 -11 3 -14 6 -6 3 7 2 16 -1 19 -3 4 -6 -2 -5 -13z"/>
<path d="M4241 1949 c-13 -5 -21 -12 -18 -15 9 -9 116 6 122 17 8 12 -73 11
-104 -2z"/>
<path d="M5692 1890 c0 -19 2 -27 5 -17 2 9 2 25 0 35 -3 9 -5 1 -5 -18z"/>
<path d="M1596 1875 c-3 -9 -5 -40 -5 -68 l2 -52 7 65 c8 67 7 82 -4 55z"/>
<path d="M5970 1867 c0 -15 29 -57 30 -42 0 6 -3 20 -6 33 -7 24 -24 31 -24 9z"/>
<path d="M5650 1826 c0 -24 30 -87 40 -81 5 3 11 -4 15 -15 8 -26 21 -26 28 1
10 37 30 10 24 -32 -3 -22 -1 -39 4 -39 5 0 9 9 9 19 0 11 5 23 10 26 6 3 10
22 10 42 0 26 5 36 20 40 23 6 26 26 7 42 -17 14 -27 4 -27 -25 0 -21 -22 -39
-34 -27 -3 3 -3 17 1 30 5 21 2 24 -13 21 -14 -2 -19 -12 -19 -37 0 -19 -5
-36 -12 -38 -17 -6 -34 33 -27 62 5 21 3 25 -15 25 -12 0 -21 -6 -21 -14z"/>
<path d="M1541 1814 c0 -11 3 -14 6 -6 3 7 2 16 -1 19 -3 4 -6 -2 -5 -13z"/>
<path d="M1677 1814 c-8 -9 13 -52 29 -58 10 -4 10 2 2 25 -11 31 -21 42 -31
33z"/>
<path d="M5880 1801 c-6 -12 -18 -21 -26 -21 -11 0 -14 -6 -10 -16 3 -9 6 -31
6 -50 0 -51 18 -41 25 14 3 26 11 55 16 65 6 11 8 21 6 24 -3 3 -10 -5 -17
-16z"/>
<path d="M1719 1633 c3 -41 5 -45 14 -26 5 12 7 33 3 47 -11 43 -21 29 -17
-21z"/>
<path d="M5347 1619 c-10 -23 -16 -43 -14 -46 6 -6 39 66 35 78 -2 5 -11 -9
-21 -32z"/>
<path d="M7662 1640 c-1 -14 3 -43 7 -65 l9 -40 0 40 c0 22 -4 51 -8 65 l-8
25 0 -25z"/>
<path d="M0 1637 c0 -8 19 -27 43 -44 75 -55 215 -200 237 -246 20 -42 21 -51
10 -148 -8 -67 -9 -155 -4 -249 14 -289 2 -483 -37 -582 -10 -27 -19 -60 -19
-73 0 -30 -93 -103 -178 -141 -30 -13 -52 -29 -52 -38 0 -18 25 -22 36 -5 3 6
17 8 30 5 17 -5 26 -1 34 14 6 11 17 20 25 20 7 0 26 12 42 27 16 16 41 38 56
50 19 16 27 32 27 53 0 17 6 43 13 58 39 79 56 267 46 517 -5 104 -3 237 2
317 8 96 7 142 0 157 -6 11 -11 30 -11 42 0 38 -250 279 -289 279 -6 0 -11 -6
-11 -13z"/>
<path d="M4080 1604 c-238 -25 -309 -39 -480 -90 -262 -80 -340 -125 -340
-200 0 -46 23 -56 112 -50 40 3 264 9 498 15 489 12 669 19 725 29 43 8 65 36
65 85 0 36 -40 115 -77 149 -56 53 -92 61 -288 64 -99 1 -196 0 -215 -2z m413
-48 c58 -22 103 -74 116 -135 8 -35 7 -51 -4 -67 -12 -19 -26 -22 -132 -28
-205 -10 -996 -19 -1066 -12 -45 5 -67 12 -67 21 0 19 79 79 130 97 25 9 89
33 142 52 86 32 201 57 398 85 36 5 148 8 250 7 147 -2 195 -6 233 -20z"/>
<path d="M5401 1594 c0 -11 3 -14 6 -6 3 7 2 16 -1 19 -3 4 -6 -2 -5 -13z"/>
<path d="M1367 1593 c-4 -3 -7 -11 -7 -17 0 -6 5 -5 12 2 6 6 9 14 7 17 -3 3
-9 2 -12 -2z"/>
<path d="M2590 1580 c0 -5 5 -10 10 -10 6 0 10 5 10 10 0 6 -4 10 -10 10 -5 0
-10 -4 -10 -10z"/>
<path d="M1290 1551 c0 -25 6 -27 13 -6 4 8 2 17 -3 20 -6 4 -10 -3 -10 -14z"/>
<path d="M5380 1555 c0 -8 -4 -15 -10 -15 -5 0 -10 -5 -10 -11 0 -14 18 -2 30
22 7 13 7 19 0 19 -5 0 -10 -7 -10 -15z"/>
<path d="M296 1529 c-14 -17 -26 -38 -26 -47 0 -11 8 -5 21 16 12 17 25 32 29
32 4 0 10 7 14 15 9 25 -11 17 -38 -16z"/>
<path d="M2620 1544 c0 -8 5 -12 10 -9 6 3 10 10 10 16 0 5 -4 9 -10 9 -5 0
-10 -7 -10 -16z"/>
<path d="M370 1505 c-7 -9 -11 -18 -8 -20 3 -3 11 1 18 10 7 9 11 18 8 20 -3
3 -11 -1 -18 -10z"/>
<path d="M2637 1483 c-11 -13 -17 -27 -14 -30 3 -2 13 7 23 21 22 34 15 42 -9
9z"/>
<path d="M1470 1438 c-64 -45 -117 -99 -103 -104 7 -4 9 -25 6 -67 -3 -34 -2
-59 2 -55 11 10 27 80 25 114 0 32 1 33 102 116 45 38 23 34 -32 -4z"/>
<path d="M2681 1434 c-12 -27 -11 -28 4 -12 10 9 16 21 13 28 -2 7 -10 -1 -17
-16z"/>
<path d="M2763 1445 c-9 -25 4 -29 17 -6 7 15 7 21 0 21 -6 0 -13 -7 -17 -15z"/>
<path d="M30 1423 c-6 -16 -15 -36 -20 -45 -6 -11 -10 -159 -10 -388 0 -363 0
-370 20 -370 22 0 25 -8 10 -30 -9 -13 -11 -13 -20 0 -7 10 -10 -30 -10 -127
l0 -142 33 10 c48 13 94 68 102 123 9 60 1 88 -35 123 -27 25 -30 34 -30 91 0
68 6 86 46 129 30 33 54 24 69 -25 12 -40 22 -41 30 -3 7 33 -16 88 -46 109
-27 18 -24 26 13 37 22 7 35 19 41 38 9 27 -1 55 -10 30 -8 -21 -44 -15 -69
13 -31 33 -30 73 1 110 14 16 25 34 25 39 0 6 3 21 7 34 4 17 3 22 -5 17 -7
-4 -12 -15 -12 -25 0 -20 -47 -68 -57 -57 -4 3 0 28 9 54 18 51 31 202 18 202
-16 0 -29 -27 -36 -78 -7 -59 -25 -82 -49 -62 -21 17 -19 63 6 131 21 57 20
89 -1 89 -6 0 -15 -12 -20 -27z m74 -878 c20 -30 21 -87 1 -125 -18 -34 -73
-76 -85 -64 -5 5 -6 55 -3 112 l6 102 32 0 c24 0 37 -7 49 -25z"/>
<path d="M2465 1430 c-3 -5 -1 -10 4 -10 6 0 11 5 11 10 0 6 -2 10 -4 10 -3 0
-8 -4 -11 -10z"/>
<path d="M7550 1424 c0 -8 5 -12 10 -9 6 3 10 10 10 16 0 5 -4 9 -10 9 -5 0
-10 -7 -10 -16z"/>
<path d="M5289 1408 c-7 -13 -26 -40 -42 -60 -33 -41 -30 -63 4 -32 31 27 79
100 72 108 -12 11 -22 6 -34 -16z"/>
<path d="M3132 1378 c-5 -24 -13 -51 -17 -61 -6 -13 -3 -16 9 -11 10 4 16 18
16 39 0 18 7 38 15 45 10 9 15 9 15 1 0 -8 5 -8 19 1 26 16 17 28 -19 28 -25
0 -29 -5 -38 -42z"/>
<path d="M7600 1399 c0 -11 5 -17 10 -14 6 3 10 13 10 21 0 8 -4 14 -10 14 -5
0 -10 -9 -10 -21z"/>
<path d="M2563 1379 c-23 -27 -23 -27 -2 -22 21 6 34 25 27 41 -1 5 -13 -3
-25 -19z"/>
<path d="M3060 1365 c0 -22 4 -34 10 -30 6 3 10 17 10 30 0 13 -4 27 -10 30
-6 4 -10 -8 -10 -30z"/>
<path d="M1741 1355 c12 -19 26 -35 31 -35 34 0 227 -246 265 -338 l15 -37
-37 35 c-20 19 -43 48 -52 63 -8 16 -17 26 -20 24 -6 -7 53 -94 81 -119 10
-10 23 -15 29 -11 6 4 8 0 4 -11 -5 -11 5 -28 31 -54 21 -20 60 -68 87 -107
85 -122 257 -346 262 -341 11 11 -71 135 -180 271 -51 63 -92 133 -83 142 3 3
13 2 23 -3 26 -11 93 -14 93 -3 0 5 -4 9 -10 9 -5 0 -10 7 -10 15 0 8 4 15 9
15 5 0 14 -7 21 -15 7 -8 9 -15 4 -15 -4 0 2 -11 15 -24 12 -13 26 -40 32 -61
6 -20 12 -35 15 -33 2 2 -1 19 -6 38 -5 18 -6 40 -1 48 15 26 45 -17 75 -109
15 -46 39 -108 52 -138 14 -29 23 -59 21 -65 -5 -14 -67 48 -67 67 0 9 -25 41
-56 74 -31 32 -63 74 -71 93 -8 19 -22 43 -31 53 -19 21 -46 23 -38 2 8 -22
94 -138 154 -208 29 -34 62 -81 74 -104 11 -23 31 -49 44 -58 13 -8 24 -22 24
-30 0 -8 18 -32 40 -52 23 -21 48 -53 57 -70 8 -18 19 -30 24 -27 5 3 20 -7
34 -23 19 -22 24 -24 25 -10 0 9 -4 17 -10 17 -5 0 -10 18 -10 40 0 22 -4 40
-9 40 -5 0 -7 -9 -4 -20 4 -14 0 -20 -10 -20 -19 0 -47 37 -47 62 0 10 -10 23
-22 29 -13 5 -32 24 -43 42 -25 39 -138 375 -132 391 8 19 -17 44 -69 72 -27
14 -58 34 -70 45 -11 10 -26 19 -32 19 -7 0 -49 30 -92 66 -44 36 -80 61 -80
55 0 -6 9 -16 20 -23 11 -7 20 -18 20 -24 0 -6 11 -21 25 -34 14 -13 25 -29
25 -37 0 -7 11 -15 25 -19 32 -8 52 -31 38 -45 -16 -16 -81 16 -92 44 -5 13
-16 27 -24 30 -23 9 -79 95 -75 116 3 21 -18 51 -37 51 -7 0 -24 18 -39 40
-14 22 -31 40 -36 40 -5 0 -12 11 -16 25 -3 14 -18 32 -33 39 -15 8 -54 44
-88 80 -67 72 -94 86 -62 31z"/>
<path d="M3210 1360 c0 -18 4 -29 10 -25 6 3 10 15 10 25 0 10 -4 22 -10 25
-6 4 -10 -7 -10 -25z"/>
<path d="M7666 1381 c-4 -7 -5 -15 -2 -18 9 -9 19 4 14 18 -4 11 -6 11 -12 0z"/>
<path d="M2470 1369 c0 -5 5 -7 10 -4 6 3 10 8 10 11 0 2 -4 4 -10 4 -5 0 -10
-5 -10 -11z"/>
<path d="M2724 1369 c-3 -6 -1 -16 5 -22 8 -8 11 -5 11 11 0 24 -5 28 -16 11z"/>
<path d="M3160 1346 c-9 -25 -3 -66 11 -66 15 0 21 21 9 35 -6 8 -9 23 -5 35
9 28 -4 25 -15 -4z"/>
<path d="M1597 1353 c-4 -3 -7 -16 -6 -27 0 -19 1 -19 10 3 10 24 8 36 -4 24z"/>
<path d="M4690 1352 c0 -15 28 -47 35 -40 11 11 -5 48 -21 48 -8 0 -14 -4 -14
-8z"/>
<path d="M4926 1345 c4 -8 8 -15 10 -15 2 0 4 7 4 15 0 8 -4 15 -10 15 -5 0
-7 -7 -4 -15z"/>
<path d="M4820 1338 c0 -9 7 -29 16 -44 l15 -29 -6 35 c-8 38 -25 65 -25 38z"/>
<path d="M1310 1294 c0 -28 4 -43 10 -39 6 4 8 10 5 14 -2 5 2 17 9 27 10 13
11 23 4 31 -19 24 -28 13 -28 -33z"/>
<path d="M5176 1325 c-3 -9 -6 -25 -6 -34 0 -19 -53 -81 -69 -81 -5 0 -21 -16
-36 -36 -19 -25 -33 -34 -46 -31 -11 3 -19 0 -19 -8 0 -7 -7 -18 -15 -25 -9
-7 -22 -27 -30 -44 -23 -49 -86 -110 -97 -94 -7 10 -10 10 -18 -2 -47 -79
-102 -149 -127 -165 -17 -11 -42 -37 -55 -58 -22 -36 -95 -149 -148 -229 -14
-20 -34 -38 -45 -40 -13 -2 -35 -32 -65 -88 -58 -109 -90 -156 -115 -170 -11
-6 -43 -58 -71 -116 -41 -83 -48 -104 -35 -104 9 0 25 16 35 35 11 19 54 85
97 147 43 62 102 148 130 191 46 68 69 91 69 70 0 -9 -46 -77 -90 -133 -19
-25 -40 -54 -47 -65 -7 -11 -39 -64 -73 -118 -33 -54 -60 -100 -60 -103 0 -2
6 -4 13 -4 6 1 35 37 62 82 28 45 67 109 87 142 46 75 67 103 94 130 27 28 64
80 97 136 14 25 43 63 64 85 47 49 82 97 108 149 11 22 42 62 68 90 27 27 65
69 84 92 21 26 40 41 49 37 8 -3 14 0 14 6 0 6 -4 11 -10 11 -31 0 1 49 88
139 54 56 105 113 113 128 8 16 19 33 25 38 8 7 8 16 -1 33 -11 20 -13 21 -19
7z m-391 -515 c-10 -11 -23 -20 -28 -20 -6 0 -2 9 8 20 10 11 23 20 28 20 6 0
2 -9 -8 -20z m-96 -126 c-30 -54 -109 -146 -109 -126 0 16 131 193 138 187 2
-2 -11 -29 -29 -61z"/>
<path d="M4756 1304 c-4 -9 0 -24 9 -34 8 -9 15 -23 15 -31 0 -8 5 -20 12 -27
23 -23 26 -12 7 25 -10 21 -19 48 -19 60 0 27 -15 31 -24 7z"/>
<path d="M3117 1243 c-4 -3 -7 -11 -7 -17 0 -6 5 -5 12 2 6 6 9 14 7 17 -3 3
-9 2 -12 -2z"/>
<path d="M3285 1210 c-7 -12 2 -30 16 -30 12 0 12 27 0 35 -5 3 -12 1 -16 -5z"/>
<path d="M2993 1191 c-30 -25 -29 -32 2 -18 14 7 25 18 25 25 0 15 0 15 -27
-7z"/>
<path d="M4725 1187 c-8 -19 12 -50 26 -41 13 7 11 17 -5 40 -14 18 -15 18
-21 1z"/>
<path d="M1540 1161 c-17 -33 -11 -45 10 -18 22 28 25 37 10 37 -5 0 -14 -9
-20 -19z"/>
<path d="M3240 1164 c0 -8 5 -12 10 -9 6 3 10 10 10 16 0 5 -4 9 -10 9 -5 0
-10 -7 -10 -16z"/>
<path d="M3081 1133 l1 -38 13 30 c13 30 11 45 -6 45 -5 0 -9 -17 -8 -37z"/>
<path d="M2020 1142 c0 -13 23 -32 39 -32 11 0 10 4 -4 20 -19 21 -35 26 -35
12z"/>
<path d="M2850 1125 c-11 -13 -10 -14 4 -9 9 3 16 10 16 15 0 13 -6 11 -20 -6z"/>
<path d="M3147 1133 c-4 -3 -7 -17 -7 -29 0 -13 -5 -35 -12 -49 -9 -21 -17
-25 -35 -20 -19 4 -23 2 -23 -20 0 -33 12 -32 52 8 26 25 33 41 35 75 2 43 1
47 -10 35z"/>
<path d="M2905 1090 c-3 -5 -1 -10 4 -10 6 0 11 5 11 10 0 6 -2 10 -4 10 -3 0
-8 -4 -11 -10z"/>
<path d="M2092 1078 c3 -7 13 -15 24 -17 16 -3 17 -1 5 13 -16 19 -34 21 -29
4z"/>
<path d="M2232 1071 c5 -15 148 -131 161 -131 6 0 1 7 -12 16 -13 9 -47 41
-76 70 -47 48 -82 70 -73 45z"/>
<path d="M2950 1054 c0 -8 5 -12 10 -9 6 3 10 10 10 16 0 5 -4 9 -10 9 -5 0
-10 -7 -10 -16z"/>
<path d="M826 1038 c-21 -29 -21 -74 0 -82 30 -12 35 -6 18 23 -15 25 -16 35
-6 55 14 32 8 33 -12 4z"/>
<path d="M2420 1041 c0 -17 49 -91 60 -91 7 0 7 -7 0 -20 -9 -16 -8 -22 5 -26
21 -9 33 5 15 16 -8 6 -10 10 -5 10 6 0 25 -9 43 -20 35 -21 62 -26 62 -11 0
5 -14 12 -31 16 -19 4 -40 21 -57 43 -31 44 -92 98 -92 83z"/>
<path d="M170 1020 c-9 -6 -10 -10 -3 -10 6 0 15 5 18 10 8 12 4 12 -15 0z"/>
<path d="M5336 1013 c-6 -14 -5 -15 5 -6 7 7 10 15 7 18 -3 3 -9 -2 -12 -12z"/>
<path d="M3160 1009 c0 -5 5 -7 10 -4 6 3 10 8 10 11 0 2 -4 4 -10 4 -5 0 -10
-5 -10 -11z"/>
<path d="M2290 932 c0 -10 60 -35 67 -28 6 5 -20 23 -44 30 -13 4 -23 3 -23
-2z"/>
<path d="M2595 851 c-7 -13 32 -34 46 -26 7 5 6 11 -2 21 -13 16 -35 18 -44 5z"/>
<path d="M5851 834 c0 -11 3 -14 6 -6 3 7 2 16 -1 19 -3 4 -6 -2 -5 -13z"/>
<path d="M6500 738 c0 -20 -5 -40 -10 -43 -7 -4 -7 -12 0 -25 5 -10 10 -39 10
-64 0 -25 3 -46 8 -46 4 0 6 37 4 81 -3 60 0 84 10 90 10 7 10 12 -4 26 -17
16 -18 16 -18 -19z"/>
<path d="M850 753 c0 -14 19 -38 25 -32 8 8 -5 39 -16 39 -5 0 -9 -3 -9 -7z"/>
<path d="M2501 743 c-1 -16 40 -145 50 -156 10 -13 -16 93 -34 133 -8 19 -16
29 -16 23z"/>
<path d="M5811 743 c-1 -6 -4 -20 -7 -30 -5 -17 -5 -17 6 0 6 10 9 23 6 30 -3
9 -5 9 -5 0z"/>
<path d="M6570 728 c0 -7 6 -32 13 -56 13 -44 31 -48 22 -6 -3 13 -7 35 -10
49 -5 25 -25 35 -25 13z"/>
<path d="M2575 690 c6 -31 40 -152 65 -236 6 -17 10 -40 10 -52 0 -11 5 -24
11 -27 16 -10 -12 129 -41 200 -5 11 -14 43 -21 70 -15 62 -33 95 -24 45z"/>
<path d="M5026 684 c-9 -24 -7 -28 9 -14 17 14 20 30 6 30 -5 0 -12 -7 -15
-16z"/>
<path d="M1700 686 c0 -10 68 -76 79 -76 7 0 -4 18 -25 40 -33 35 -54 49 -54
36z"/>
<path d="M924 648 c15 -18 32 -43 38 -55 6 -13 16 -23 21 -23 5 0 2 10 -7 23
-9 12 -26 37 -37 55 -12 17 -26 32 -31 32 -6 0 1 -15 16 -32z"/>
<path d="M2976 633 c3 -16 14 -55 25 -88 10 -33 35 -123 54 -200 20 -77 38
-142 41 -144 11 -12 2 52 -16 105 -11 32 -20 68 -20 79 0 11 -16 67 -35 125
-19 58 -35 115 -35 128 0 12 -5 22 -10 22 -6 0 -8 -12 -4 -27z"/>
<path d="M2810 632 c0 -10 3 -22 7 -26 9 -8 42 -110 49 -150 3 -16 9 -38 14
-50 l9 -21 0 21 c1 12 -10 55 -23 95 -13 41 -27 89 -31 106 -7 37 -25 54 -25
25z"/>
<path d="M1655 620 c3 -5 13 -10 21 -10 8 0 12 5 9 10 -3 6 -13 10 -21 10 -8
0 -12 -4 -9 -10z"/>
<path d="M890 605 c7 -9 15 -13 17 -11 7 7 -7 26 -19 26 -6 0 -6 -6 2 -15z"/>
<path d="M2915 585 c4 -22 10 -53 15 -70 5 -16 12 -43 15 -59 3 -15 8 -26 11
-24 6 7 -14 103 -32 153 l-15 40 6 -40z"/>
<path d="M3060 613 c0 -6 7 -33 15 -59 22 -73 75 -291 86 -354 6 -30 13 -57
16 -60 18 -16 -35 240 -89 425 -12 41 -28 69 -28 48z"/>
<path d="M5741 583 c-1 -6 -4 -20 -7 -30 -5 -17 -5 -17 6 0 6 10 9 23 6 30 -3
9 -5 9 -5 0z"/>
<path d="M921 563 c7 -12 15 -20 18 -17 3 2 -3 12 -13 22 -17 16 -18 16 -5 -5z"/>
<path d="M957 493 c-5 -25 10 -63 24 -63 4 0 5 10 1 23 -5 22 -5 22 16 3 28
-25 28 -15 0 29 -28 42 -34 43 -41 8z"/>
<path d="M1030 501 c0 -6 4 -13 10 -16 6 -3 7 1 4 9 -7 18 -14 21 -14 7z"/>
<path d="M5694 475 c-3 -8 -4 -20 -2 -27 3 -7 7 -1 10 15 6 29 1 36 -8 12z"/>
<path d="M5401 454 c0 -11 3 -14 6 -6 3 7 2 16 -1 19 -3 4 -6 -2 -5 -13z"/>
<path d="M2004 426 c-9 -15 -14 -29 -11 -32 3 -3 13 6 23 20 9 15 14 29 11 32
-3 3 -13 -6 -23 -20z"/>
<path d="M6317 410 c6 -21 21 -35 29 -27 6 6 -18 47 -27 47 -4 0 -5 -9 -2 -20z"/>
<path d="M999 402 c12 -22 41 -48 41 -36 -1 11 -36 54 -44 54 -4 0 -2 -8 3
-18z"/>
<path d="M1540 412 c0 -12 19 -26 26 -19 2 2 -2 10 -11 17 -9 8 -15 8 -15 2z"/>
<path d="M2965 390 c3 -14 10 -56 15 -94 15 -98 29 -160 35 -154 7 6 -32 222
-44 248 l-12 25 6 -25z"/>
<path d="M1081 391 c-8 -5 -11 -16 -8 -24 3 -8 1 -19 -5 -25 -13 -13 76 -122
98 -122 24 0 15 18 -26 51 -51 41 -53 64 -5 55 35 -7 35 -7 23 19 -6 14 -16
25 -21 25 -6 0 -18 7 -26 14 -10 10 -22 12 -30 7z"/>
<path d="M1190 396 c0 -2 8 -10 18 -17 15 -13 16 -12 3 4 -13 16 -21 21 -21
13z"/>
<path d="M1440 385 c0 -2 10 -10 23 -16 20 -11 21 -11 8 4 -13 16 -31 23 -31
12z"/>
<path d="M6240 381 c0 -21 13 -41 26 -41 17 0 17 10 0 33 -14 19 -26 22 -26 8z"/>
<path d="M6420 385 c0 -18 19 -40 26 -32 4 4 0 15 -9 24 -9 10 -17 13 -17 8z"/>
<path d="M2670 346 c0 -8 4 -17 9 -20 5 -4 7 3 4 14 -6 23 -13 26 -13 6z"/>
<path d="M2904 334 c3 -16 9 -44 12 -61 4 -18 11 -33 16 -33 6 0 7 7 4 16 -3
9 -9 33 -12 55 -4 22 -11 42 -17 46 -6 4 -8 -4 -3 -23z"/>
<path d="M1050 275 c0 -2 11 -29 24 -59 17 -38 37 -64 64 -83 22 -15 48 -41
58 -58 11 -18 19 -24 22 -16 2 7 -7 25 -20 39 -39 44 -114 146 -121 165 -6 15
-27 25 -27 12z"/>
<path d="M6436 252 c-7 -11 13 -86 21 -78 4 3 15 -1 25 -11 12 -11 19 -32 20
-67 1 -36 3 -26 7 34 3 47 5 87 3 89 -1 3 -8 -4 -16 -14 -11 -15 -14 -16 -22
-4 -5 8 -9 23 -9 33 0 21 -20 33 -29 18z"/>
<path d="M2576 203 c-4 -21 -9 -46 -12 -55 -3 -10 -1 -18 4 -18 5 0 12 15 15
33 4 17 9 42 13 55 3 12 2 22 -4 22 -5 0 -13 -17 -16 -37z"/>
<path d="M6350 230 c0 -8 12 -28 26 -45 l25 -30 -15 30 c-8 17 -20 37 -25 45
-10 13 -11 13 -11 0z"/>
<path d="M6280 210 c0 -18 70 -134 77 -127 4 5 -66 137 -73 137 -2 0 -4 -4 -4
-10z"/>
<path d="M2645 200 c-3 -5 -1 -10 4 -10 6 0 11 5 11 10 0 6 -2 10 -4 10 -3 0
-8 -4 -11 -10z"/>
<path d="M270 166 c0 -8 5 -18 10 -21 6 -3 10 1 10 9 0 8 -4 18 -10 21 -5 3
-10 -1 -10 -9z"/>
<path d="M5802 135 c0 -16 2 -22 5 -12 2 9 2 23 0 30 -3 6 -5 -1 -5 -18z"/>
<path d="M6601 148 c0 -7 4 -22 9 -33 8 -18 9 -17 9 7 1 15 -3 30 -9 33 -5 3
-10 0 -9 -7z"/>
<path d="M350 141 c0 -5 5 -13 10 -16 6 -3 10 -2 10 4 0 5 -4 13 -10 16 -5 3
-10 2 -10 -4z"/>
<path d="M6416 142 c-2 -4 -1 -14 5 -22 5 -8 9 -26 10 -40 1 -24 1 -24 9 4 11
36 -9 83 -24 58z"/>
<path d="M230 129 c0 -16 27 -46 35 -38 2 2 -5 15 -15 29 -15 19 -20 21 -20 9z"/>
<path d="M146 113 c-17 -60 -18 -93 -1 -99 9 -4 21 -2 28 5 6 6 19 11 28 11
23 0 33 16 24 38 -5 15 -8 14 -24 -7 -22 -29 -57 -23 -47 9 3 11 9 29 12 40 4
11 2 20 -4 20 -6 0 -13 -8 -16 -17z"/>
<path d="M62 88 c-14 -14 -16 -88 -3 -88 5 0 7 9 4 19 -3 11 2 34 10 50 16 32
10 40 -11 19z"/>
<path d="M2107 73 c13 -33 33 -68 33 -57 0 12 -29 74 -35 74 -3 0 -1 -8 2 -17z"/>
<path d="M5581 64 c0 -11 3 -14 6 -6 3 7 2 16 -1 19 -3 4 -6 -2 -5 -13z"/>
<path d="M460 50 c0 -5 9 -14 20 -20 16 -8 20 -8 20 4 0 7 -7 17 -16 20 -21 8
-24 8 -24 -4z"/>
<path d="M4081 44 c0 -11 3 -14 6 -6 3 7 2 16 -1 19 -3 4 -6 -2 -5 -13z"/>
<path d="M6380 51 c0 -6 4 -13 10 -16 6 -3 7 1 4 9 -7 18 -14 21 -14 7z"/>
<path d="M302 38 c4 -12 69 -31 77 -22 2 2 -2 10 -9 19 -15 18 -74 21 -68 3z"/>
<path d="M2706 35 c-8 -23 -8 -35 3 -35 13 0 20 25 11 39 -5 10 -9 8 -14 -4z"/>
<path d="M4500 36 c-6 -9 -10 -21 -8 -28 3 -8 9 -4 17 10 15 28 9 39 -9 18z"/>
<path d="M5530 26 c0 -21 5 -26 25 -26 18 0 25 5 25 20 0 11 -4 20 -9 20 -5 0
-16 3 -25 6 -12 5 -16 0 -16 -20z"/>
<path d="M1164 24 c3 -9 6 -18 6 -20 0 -2 10 -4 22 -4 20 0 21 1 3 20 -22 24
-40 26 -31 4z"/>
<path d="M5111 24 c0 -11 3 -14 6 -6 3 7 2 16 -1 19 -3 4 -6 -2 -5 -13z"/>
<path d="M560 10 c0 -5 7 -10 16 -10 8 0 12 5 9 10 -3 6 -10 10 -16 10 -5 0
-9 -4 -9 -10z"/>
</g>
</svg>
