<?xml version="1.0" standalone="no"?>
<!DOCTYPE svg PUBLIC "-//W3C//DTD SVG 20010904//EN"
 "http://www.w3.org/TR/2001/REC-SVG-20010904/DTD/svg10.dtd">
<svg version="1.0" xmlns="http://www.w3.org/2000/svg"
 width="317.000000pt" height="317.000000pt" viewBox="0 0 317.000000 317.000000"
 preserveAspectRatio="xMidYMid meet">

<g transform="translate(0.000000,317.000000) scale(0.100000,-0.100000)"
fill="#000000" stroke="none">
<path d="M1329 2065 c-94 -15 -177 -45 -146 -52 9 -3 32 0 50 6 95 31 369 43
515 21 140 -20 262 -73 312 -137 11 -14 25 -43 30 -64 29 -105 -102 -240 -355
-365 -159 -79 -356 -146 -354 -121 0 7 19 66 42 132 l42 119 40 9 c22 5 77 7
123 4 45 -3 82 -1 82 3 0 14 -43 20 -137 20 -51 0 -93 3 -93 6 0 4 19 63 42
130 31 90 39 127 31 135 -8 8 -24 -29 -59 -135 -42 -126 -51 -146 -69 -146
-62 0 -230 -59 -297 -104 -61 -40 -88 -134 -53 -184 24 -33 113 -55 191 -47
35 3 64 5 64 3 0 -2 -13 -45 -30 -96 -16 -51 -30 -102 -30 -113 0 -40 19 -7
50 89 38 113 54 142 79 142 35 0 206 62 317 115 141 66 235 127 307 198 112
109 126 206 44 303 -36 43 -155 99 -252 119 -109 23 -373 29 -486 10z m100
-477 c0 -7 -19 -67 -43 -133 -47 -135 -44 -132 -156 -133 -134 -2 -187 66
-119 152 27 34 103 74 199 102 86 26 120 29 119 12z"/>
</g>
</svg>
