<?xml version="1.0" standalone="no"?>
<!DOCTYPE svg PUBLIC "-//W3C//DTD SVG 20010904//EN"
 "http://www.w3.org/TR/2001/REC-SVG-20010904/DTD/svg10.dtd">
<svg version="1.0" xmlns="http://www.w3.org/2000/svg"
 width="256.000000pt" height="256.000000pt" viewBox="0 0 256.000000 256.000000"
 preserveAspectRatio="xMidYMid meet">

<g transform="translate(0.000000,256.000000) scale(0.100000,-0.100000)"
fill="#000000" stroke="none">
<path d="M1205 2554 c-337 -31 -603 -152 -825 -374 -243 -243 -373 -555 -373
-900 0 -707 563 -1271 1268 -1273 351 -1 659 126 906 372 245 245 373 554 373
901 0 551 -348 1034 -870 1209 -138 46 -357 76 -479 65z m-335 -546 c107 -54
129 -188 45 -273 -107 -106 -285 -31 -285 121 0 77 48 143 119 164 45 14 75
11 121 -12z m944 -439 c101 -47 158 -136 176 -275 6 -44 10 -202 8 -354 l-3
-275 -142 -3 -142 -3 -3 283 c-3 278 -3 284 -27 325 -57 100 -215 92 -267 -13
-17 -35 -19 -67 -22 -316 l-3 -278 -140 0 -139 0 0 455 0 455 140 0 140 0 0
-55 0 -56 31 35 c36 42 85 74 142 92 63 21 190 12 251 -17z m-874 -454 l0
-455 -145 0 -145 0 0 455 0 455 145 0 145 0 0 -455z"/>
</g>
</svg>
